<svg width="744" height="473" viewBox="0 0 744 473" fill="none" xmlns="http://www.w3.org/2000/svg">
<mask id="mask0" mask-type="alpha" maskUnits="userSpaceOnUse" x="0" y="51" width="744" height="422">
<path d="M0 51H744V473H0V51Z" fill="#C4C4C4"/>
</mask>
<g mask="url(#mask0)">
<path opacity="0.1" d="M70 402C70 389.273 209.425 379 381.5 379C553.576 379 693 389.273 693 402C693 414.727 553.576 425 381.5 425C209.425 425 70 414.727 70 402Z" fill="#13254A"/>
<path d="M620.776 393C613.031 393 606.964 390.936 602.575 386.809C598.185 382.423 595.991 376.232 595.991 368.234V338.051H500.335C492.331 338.051 485.876 336.374 480.971 333.021C476.324 329.667 474 324.508 474 317.542C474 313.157 475.033 308.513 477.098 303.612C479.422 298.71 483.424 292.261 489.104 284.264L595.216 130.639C598.831 125.222 602.833 121.094 607.222 118.257C611.611 115.419 616.645 114 622.325 114C629.038 114 634.589 116.064 638.978 120.191C643.367 124.061 645.562 130.252 645.562 138.766V297.033H664.538C679.513 297.033 687 303.87 687 317.542C687 331.215 679.513 338.051 664.538 338.051H645.562V368.234C645.562 376.232 643.367 382.423 638.978 386.809C634.589 390.936 628.522 393 620.776 393ZM595.991 297.033V192.94L524.733 297.033H595.991Z" fill="#6CE9AD"/>
<mask id="mask1" mask-type="alpha" maskUnits="userSpaceOnUse" x="164" y="76" width="452" height="315">
<path d="M164 76H616V391H164V76Z" fill="#C4C4C4"/>
</mask>
<g mask="url(#mask1)">
<path d="M475.999 387.968C533.444 330.523 533.444 237.386 475.999 179.941C418.554 122.496 325.417 122.496 267.972 179.941C210.527 237.386 210.527 330.522 267.972 387.967C325.417 445.412 418.554 445.413 475.999 387.968Z" fill="#5D5D5D"/>
<path d="M250 284C250 216.599 304.599 162 372 162C439.401 162 494 216.599 494 284C494 351.401 439.401 406 372 406C304.599 406 250 351.247 250 284Z" fill="#4A4A4A"/>
<path d="M372 388C314.685 388 268 341.316 268 284C268 226.685 314.685 180 372 180C429.316 180 476 226.685 476 284C476 341.316 429.316 388 372 388ZM372 181.695C315.609 181.695 269.695 227.609 269.695 284C269.695 340.392 315.609 386.306 372 386.306C428.392 386.306 474.306 340.392 474.306 284C474.152 227.609 428.392 181.695 372 181.695Z" fill="#767676"/>
<path d="M372 387C315.258 387 269 340.743 269 284C269 227.258 315.258 181 372 181C428.743 181 475 227.258 475 284C474.846 340.897 428.743 387 372 387ZM372 182.08C315.721 182.08 269.926 227.875 269.926 284.155C269.926 340.435 315.721 386.23 372 386.23C428.28 386.23 474.075 340.435 474.075 284.155C474.075 227.875 428.28 182.08 372 182.08Z" fill="#3F3F3F"/>
<path d="M372 416C299.253 416 240 356.747 240 284C240 211.253 299.253 152 372 152C444.747 152 504 211.253 504 284C504 356.747 444.747 416 372 416ZM372 153.706C300.183 153.706 241.861 212.183 241.861 283.845C241.861 355.662 300.338 413.984 372 413.984C443.817 413.984 502.139 355.662 502.139 283.845C502.139 212.183 443.817 153.706 372 153.706Z" fill="#767676"/>
<path d="M372 414C300.361 414 242 355.639 242 284C242 212.361 300.361 154 372 154C443.639 154 502 212.361 502 284C502 355.639 443.639 414 372 414ZM372 154.772C300.824 154.772 242.926 212.67 242.926 283.846C242.926 355.021 300.824 412.919 372 412.919C443.176 412.919 501.074 355.021 501.074 283.846C501.074 212.67 443.176 154.772 372 154.772Z" fill="#3F3F3F"/>
<path d="M466 377.874L467.28 396C469.52 394.141 471.76 392.127 474 390.113L470.16 374L466 377.874Z" fill="#4A4A4A"/>
<path d="M475 368.916L477.742 386C478.548 385.238 479.194 384.628 480 383.865L476.129 368L475 368.916Z" fill="#4A4A4A"/>
<path d="M487 350.147L493.058 368C494.812 365.588 496.406 363.014 498 360.28L489.87 345L487 350.147Z" fill="#4A4A4A"/>
<path d="M493 339.073L500.5 355C501 354.082 501.5 353.163 502 352.397L493.667 338L493 339.073Z" fill="#4A4A4A"/>
<path d="M500 318.152L510.305 333C511.256 330.273 512.207 327.546 513 324.819L501.427 313L500 318.152Z" fill="#4A4A4A"/>
<path d="M504 306.392L514.276 320C514.566 319.073 514.711 317.99 515 317.062L504.434 305L504 306.392Z" fill="#4A4A4A"/>
<path d="M505 283.843L518.538 296C518.846 293 518.846 290 519 287L505 278V283.843Z" fill="#4A4A4A"/>
<path d="M505.152 271.422L519 282C519 280.895 519 279.948 518.848 278.843L505 270L505.152 271.422Z" fill="#4A4A4A"/>
<path d="M500.565 249.535L517 258C516.53 255.07 515.904 251.977 515.122 249.047L499 244L500.565 249.535Z" fill="#4A4A4A"/>
<path d="M497.444 237.441L513 244C512.704 243.04 512.407 241.92 512.111 240.96L497 236L497.444 237.441Z" fill="#4A4A4A"/>
<path d="M486.842 217.529L505 221C503.737 218.434 502.316 215.868 500.895 213.453L484 213L486.842 217.529Z" fill="#4A4A4A"/>
<path d="M480.615 206.4L498 209C497.538 207.8 496.923 206.8 496.462 205.6L480 205L480.615 206.4Z" fill="#4A4A4A"/>
<path d="M465.873 190L484 188.72C482.141 186.48 480.127 184.24 478.113 182L462 185.841L465.873 190Z" fill="#4A4A4A"/>
<path d="M456.915 181L474 178.259C473.237 177.452 472.627 176.807 471.864 176L456 179.871L456.915 181Z" fill="#4A4A4A"/>
<path d="M438.923 169L456 162.943C453.692 161.189 451.231 159.595 448.615 158L434 166.131L438.923 169Z" fill="#4A4A4A"/>
<path d="M427.072 162L443 155.334C442.081 154.889 441.162 154.445 440.396 154L426 161.408L427.072 162Z" fill="#4A4A4A"/>
<path d="M406.152 155L421 145.488C418.273 144.61 415.545 143.732 412.818 143L401 153.683L406.152 155Z" fill="#4A4A4A"/>
<path d="M394.392 152L408 140.79C407.072 140.474 405.99 140.316 405.062 140L393 151.527L394.392 152Z" fill="#4A4A4A"/>
<path d="M371.842 151L384 137.462C381 137.154 378 137.154 375 137L366 151H371.842Z" fill="#4A4A4A"/>
<path d="M359.421 151L370 137C368.895 137 367.947 137 366.842 137L358 151H359.421Z" fill="#4A4A4A"/>
<path d="M337.14 155.435L345 139C342.279 139.47 339.407 140.096 336.686 140.879L332 157L337.14 155.435Z" fill="#4A4A4A"/>
<path d="M325.44 158.556L332 143C331.04 143.297 329.92 143.593 328.96 143.889L324 159L325.44 158.556Z" fill="#4A4A4A"/>
<path d="M305.593 169.158L309 151C306.481 152.264 303.963 153.685 301.593 155.106L301 172L305.593 169.158Z" fill="#4A4A4A"/>
<path d="M294.05 175.385L296 158C295.1 158.462 294.35 159.077 293.45 159.539L293 176L294.05 175.385Z" fill="#4A4A4A"/>
<path d="M278 190.127L276.72 172C274.48 173.86 272.24 175.874 270 177.888L273.84 194L278 190.127Z" fill="#4A4A4A"/>
<path d="M269 199.085L266.258 182C265.452 182.763 264.806 183.373 264 184.136L267.871 200L269 199.085Z" fill="#4A4A4A"/>
<path d="M257 217.077L250.942 200C249.188 202.308 247.594 204.77 246 207.385L254.13 222L257 217.077Z" fill="#4A4A4A"/>
<path d="M250 228.865L243.333 212C242.889 212.973 242.444 213.946 242 214.757L249.407 230L250 228.865Z" fill="#4A4A4A"/>
<path d="M244 249.591L233.695 234C232.744 236.864 231.793 239.728 231 242.591L242.573 255L244 249.591Z" fill="#4A4A4A"/>
<path d="M240 261.609L228.789 248C228.474 248.928 228.316 250.011 228 250.939L239.526 263L240 261.609Z" fill="#4A4A4A"/>
<path d="M239 284.158L225.462 272C225.154 275 225.154 278 225 281L239 290V284.158Z" fill="#4A4A4A"/>
<path d="M238.848 296.579L225 286C225 287.105 225 288.053 225.153 289.158L239 298L238.848 296.579Z" fill="#4A4A4A"/>
<path d="M243.435 318.466L227 310C227.47 312.931 228.096 316.024 228.878 318.954L245 324L243.435 318.466Z" fill="#4A4A4A"/>
<path d="M246.556 330.56L231 324C231.297 324.96 231.593 326.08 231.889 327.04L247 332L246.556 330.56Z" fill="#4A4A4A"/>
<path d="M256.293 350.408L239 347C240.203 349.519 241.556 352.038 242.91 354.408L259 355L256.293 350.408Z" fill="#4A4A4A"/>
<path d="M263.385 360.95L246 359C246.462 359.9 247.077 360.65 247.539 361.55L264 362L263.385 360.95Z" fill="#4A4A4A"/>
<path d="M278.127 378L260 379.28C261.859 381.52 263.873 383.76 265.887 386L282 382.16L278.127 378Z" fill="#4A4A4A"/>
<path d="M287.085 387L270 389.742C270.763 390.548 271.526 391.194 272.136 392L288 388.129L287.085 387Z" fill="#4A4A4A"/>
<path d="M271 284C271 228.217 315.993 183 371.5 183C427.007 183 472 228.217 472 284C472 339.783 427.007 385 371.5 385C315.993 384.845 271 339.628 271 284Z" fill="#2A2A2A"/>
<path d="M371.267 170.356C369.711 173.245 368.467 175.845 368 177C368.778 175.989 370.178 173.534 371.733 170.645C373.289 167.756 374.533 165.156 375 164C374.378 165.012 372.822 167.467 371.267 170.356Z" fill="#5D5D5D"/>
<path d="M364.769 170.925C363.385 174.087 362.308 176.796 362 178C362.615 176.796 363.846 174.237 365.231 171.076C366.615 167.914 367.692 165.205 368 164C367.385 165.205 366.154 167.764 364.769 170.925Z" fill="#5D5D5D"/>
<path d="M357.273 171.421C356.212 174.737 355.303 177.737 355 179C355.606 177.737 356.667 174.895 357.727 171.579C358.788 168.263 359.697 165.263 360 164C359.545 165.263 358.485 168.105 357.273 171.421Z" fill="#5D5D5D"/>
<path d="M350.778 172.423C349.889 175.825 349.148 178.609 349 180C349.444 178.763 350.333 175.825 351.222 172.578C352.111 169.176 352.852 166.392 353 165C352.556 166.238 351.667 169.021 350.778 172.423Z" fill="#5D5D5D"/>
<path d="M343.286 173.92C342.571 177.475 342.143 180.546 342 182C342.429 180.708 343 177.637 343.714 174.081C344.429 170.526 344.857 167.455 345 166C344.571 167.293 344 170.364 343.286 173.92Z" fill="#5D5D5D"/>
<path d="M336.8 176C336.4 179.52 336 182.56 336 184C336.267 182.56 336.8 179.68 337.2 176C337.6 172.48 338 169.44 338 168C337.6 169.44 337.2 172.48 336.8 176Z" fill="#5D5D5D"/>
<path d="M329.667 178.5C329.223 181.8 329 184.8 329 186C329.445 184.65 329.889 181.8 330.334 178.5C330.778 175.2 331 172.2 331 171C330.556 172.35 330.112 175.2 329.667 178.5Z" fill="#5D5D5D"/>
<path d="M323.114 181.5C322.857 184.8 323.114 187.8 323.114 189C323.371 187.65 323.629 184.8 323.886 181.5C324.143 178.2 323.886 175.2 323.886 174C323.629 175.2 323.371 178.05 323.114 181.5Z" fill="#5D5D5D"/>
<path d="M317.369 184.5C317.554 187.8 317.739 190.8 317.923 192C318.108 190.65 317.923 187.8 317.739 184.5C317.554 181.2 317.369 178.2 317 177C317.185 178.2 317.185 181.05 317.369 184.5Z" fill="#5D5D5D"/>
<path d="M310.727 188C311.091 191.52 311.636 194.56 312 196C312 194.56 311.818 191.52 311.273 188C310.909 184.48 310.364 181.44 310 180C310.182 181.44 310.364 184.48 310.727 188Z" fill="#5D5D5D"/>
<path d="M305.236 192.081C305.942 195.637 306.648 198.708 307 200C306.824 198.546 306.471 195.475 305.765 191.92C305.059 188.364 304.353 185.293 304 184C304.177 185.455 304.53 188.526 305.236 192.081Z" fill="#5D5D5D"/>
<path d="M299.304 196.5C299.957 199.868 300.609 202.623 301 204C300.87 202.623 300.348 199.715 299.696 196.5C299.043 193.133 298.391 190.378 298 189C298.13 190.225 298.652 193.133 299.304 196.5Z" fill="#5D5D5D"/>
<path d="M293.793 201.578C294.621 204.825 295.586 207.763 296 209C295.724 207.609 295.034 204.825 294.207 201.423C293.379 198.021 292.414 195.238 292 194C292.276 195.392 292.966 198.33 293.793 201.578Z" fill="#5D5D5D"/>
<path d="M289.286 206.579C290.429 209.895 291.429 212.737 292 214C291.714 212.737 290.857 209.737 289.714 206.422C288.571 203.106 287.571 200.264 287 199C287.286 200.422 288.143 203.264 289.286 206.579Z" fill="#5D5D5D"/>
<path d="M284.244 211.664C285.78 214.924 287.146 217.859 288 219C287.488 217.696 286.293 214.761 284.756 211.337C283.22 207.914 281.854 205.142 281 204C281.512 205.305 282.707 208.24 284.244 211.664Z" fill="#5D5D5D"/>
<path d="M280.277 217.079C281.766 220.225 283.256 222.899 284 224C283.554 222.742 282.213 220.067 280.724 216.921C279.235 213.775 277.745 211.101 277 210C277.447 211.258 278.788 213.933 280.277 217.079Z" fill="#5D5D5D"/>
<path d="M275.846 223.163C277.692 226.256 279.231 228.86 280 230C279.385 228.698 278 225.93 276.154 222.837C274.308 219.744 272.769 217.14 272 216C272.615 217.302 274.154 220.07 275.846 223.163Z" fill="#5D5D5D"/>
<path d="M272.263 229.579C274.316 232.398 276.053 234.904 277 236C276.368 234.747 274.632 232.241 272.737 229.422C270.684 226.603 268.947 224.097 268 223C268.632 224.097 270.211 226.76 272.263 229.579Z" fill="#5D5D5D"/>
<path d="M268.839 236.076C271.097 238.81 273.033 240.937 274 242C273.194 240.937 271.42 238.506 269.162 235.924C266.904 233.19 264.968 231.063 264 230C264.807 231.063 266.581 233.494 268.839 236.076Z" fill="#5D5D5D"/>
<path d="M266.338 242.158C268.765 244.842 270.868 247.053 272 248C271.191 246.895 269.088 244.526 266.662 241.842C264.235 239.158 262.132 236.947 261 236C261.809 237.105 263.912 239.474 266.338 242.158Z" fill="#5D5D5D"/>
<path d="M263.833 248.657C266.5 251.171 268.833 253.214 270 254C269 252.9 266.833 250.7 264.167 248.343C261.5 245.829 259.167 243.786 258 243C259 243.943 261.167 246.143 263.833 248.657Z" fill="#5D5D5D"/>
<path d="M261.842 256.152C264.526 258.425 266.895 260.243 268 261C267.053 260.091 264.842 258.122 262.158 255.849C259.474 253.576 257.105 251.758 256 251C256.947 252.061 259.158 254.031 261.842 256.152Z" fill="#5D5D5D"/>
<path d="M260.338 262.721C263.263 264.787 265.863 266.41 267 267C266.025 266.115 263.588 264.344 260.663 262.279C257.738 260.213 255.137 258.59 254 258C255.137 259.033 257.575 260.803 260.338 262.721Z" fill="#5D5D5D"/>
<path d="M259.346 269.661C262.286 271.59 264.762 273.358 266 274C264.917 273.036 262.441 271.268 259.655 269.34C256.715 267.411 254.239 265.643 253 265C254.084 265.804 256.56 267.572 259.346 269.661Z" fill="#5D5D5D"/>
<path d="M258.425 277.235C261.264 278.961 263.805 280.373 265 281C263.954 280.216 261.414 278.647 258.575 276.765C255.736 275.039 253.195 273.627 252 273C253.046 273.784 255.586 275.51 258.425 277.235Z" fill="#5D5D5D"/>
<path d="M258.844 283.733C261.956 285.289 264.756 286.533 266 287C264.911 286.222 262.267 284.822 259.156 283.267C256.044 281.711 253.244 280.467 252 280C253.089 280.778 255.733 282.178 258.844 283.733Z" fill="#5D5D5D"/>
<path d="M258.419 291.231C261.806 292.615 264.71 293.692 266 294C264.71 293.385 261.968 292.154 258.581 290.769C255.194 289.385 252.29 288.308 251 288C252.29 288.615 255.194 289.846 258.419 291.231Z" fill="#5D5D5D"/>
<path d="M259.422 298.728C262.737 299.788 265.737 300.697 267 301C265.737 300.394 262.895 299.334 259.579 298.273C256.264 297.213 253.264 296.304 252 296C253.264 296.607 256.106 297.667 259.422 298.728Z" fill="#5D5D5D"/>
<path d="M260.423 305.222C263.825 306.111 266.608 306.852 268 307C266.763 306.556 263.825 305.667 260.577 304.778C257.175 303.889 254.392 303.148 253 303C254.237 303.593 257.021 304.333 260.423 305.222Z" fill="#5D5D5D"/>
<path d="M261.92 312.286C265.475 313.238 268.546 313.81 270 314C268.708 313.429 265.637 312.667 262.081 311.714C258.526 310.762 255.455 310.19 254 310C255.293 310.571 258.364 311.524 261.92 312.286Z" fill="#5D5D5D"/>
<path d="M264 319.2C267.52 319.6 270.56 319.867 272 320C270.56 319.734 267.52 319.2 264 318.8C260.48 318.4 257.44 318.134 256 318C257.44 318.267 260.48 318.667 264 319.2Z" fill="#5D5D5D"/>
<path d="M266.5 325.667C269.8 325.889 272.8 326 274 326C272.65 325.778 269.8 325.556 266.5 325.334C263.2 325.112 260.2 325 259 325C260.2 325.223 263.2 325.445 266.5 325.667Z" fill="#5D5D5D"/>
<path d="M272.5 338.816C275.8 338.631 278.8 338.446 280 338.077C278.65 337.892 275.8 338.077 272.5 338.262C269.2 338.446 266.2 338.631 265 339C266.35 339 269.2 339 272.5 338.816Z" fill="#5D5D5D"/>
<path d="M276 345.273C279.52 344.909 282.56 344.364 284 344C282.56 344 279.52 344.182 276 344.727C272.48 345.091 269.44 345.636 268 346C269.28 346 272.48 345.636 276 345.273Z" fill="#5D5D5D"/>
<path d="M280.425 350.765C283.758 350.059 286.637 349.353 288 349C286.637 349.176 283.758 349.529 280.425 350.235C277.091 350.941 274.213 351.647 273 352C274.213 351.824 277.091 351.471 280.425 350.765Z" fill="#5D5D5D"/>
<path d="M284.5 356.696C287.867 356.044 290.622 355.392 292 355C290.622 355.131 287.714 355.653 284.5 356.305C281.133 356.957 278.378 357.609 277 358C278.224 357.74 281.133 357.348 284.5 356.696Z" fill="#5D5D5D"/>
<path d="M289.577 361.759C292.825 360.552 295.763 359.517 297 359C295.608 359.345 292.825 360.207 289.423 361.241C286.021 362.276 283.237 363.483 282 364C283.392 363.828 286.175 362.965 289.577 361.759Z" fill="#5D5D5D"/>
<path d="M294.579 366.714C297.895 365.571 300.737 364.571 302 364C300.579 364.286 297.737 365.143 294.422 366.286C291.106 367.429 288.264 368.429 287 369C288.422 368.714 291.264 367.714 294.579 366.714Z" fill="#5D5D5D"/>
<path d="M300 371.22C303.043 369.902 305.783 368.732 307 368C305.783 368.439 303.043 369.463 299.848 370.78C296.652 372.098 294.065 373.415 293 374C294.217 373.561 296.957 372.537 300 371.22Z" fill="#5D5D5D"/>
<path d="M305.079 375.723C308.225 374.234 310.899 372.745 312 372C310.742 372.447 307.91 373.787 304.921 375.277C301.775 376.766 299.101 378.255 298 379C299.258 378.553 302.09 377.362 305.079 375.723Z" fill="#5D5D5D"/>
<path d="M344.152 394.158C346.425 391.474 348.243 389.105 349 388C348.091 388.947 346.122 391.158 343.849 393.842C341.576 396.526 339.758 398.895 339 400C339.91 399.053 341.879 396.842 344.152 394.158Z" fill="#5D5D5D"/>
<path d="M350.721 395.663C352.787 392.738 354.41 390.138 355 389C354.115 389.975 352.344 392.413 350.279 395.338C348.213 398.263 346.59 400.863 346 402C346.885 401.025 348.656 398.588 350.721 395.663Z" fill="#5D5D5D"/>
<path d="M357.661 396.655C359.589 393.715 361.357 391.239 362 390C361.036 391.084 359.268 393.56 357.339 396.346C355.411 399.286 353.643 401.762 353 403C353.964 401.917 355.732 399.596 357.661 396.655Z" fill="#5D5D5D"/>
<path d="M365.235 397.08C366.961 394.023 368.373 391.287 369 390C368.216 391.126 366.647 393.862 364.765 396.92C363.039 399.977 361.627 402.713 361 404C361.941 402.874 363.51 400.299 365.235 397.08Z" fill="#5D5D5D"/>
<path d="M371.733 397.156C373.289 394.044 374.533 391.244 375 390C374.222 391.089 372.822 393.733 371.267 396.844C369.711 399.956 368.467 402.756 368 404C368.778 402.911 370.178 400.267 371.733 397.156Z" fill="#5D5D5D"/>
<path d="M379.231 397.076C380.615 393.914 381.692 391.205 382 390C381.385 391.205 380.154 393.764 378.769 396.925C377.385 400.087 376.308 402.796 376 404C376.769 402.796 378 400.237 379.231 397.076Z" fill="#5D5D5D"/>
<path d="M386.727 396.579C387.788 393.264 388.697 390.264 389 389C388.394 390.264 387.333 393.106 386.273 396.422C385.212 399.737 384.303 402.737 384 404C384.606 402.737 385.667 399.895 386.727 396.579Z" fill="#5D5D5D"/>
<path d="M393.222 395.578C394.111 392.176 394.852 389.392 395 388C394.556 389.238 393.667 392.176 392.778 395.423C391.889 398.825 391.148 401.609 391 403C391.444 401.763 392.333 398.98 393.222 395.578Z" fill="#5D5D5D"/>
<path d="M444.261 371.5C443.391 368.133 442.522 365.378 442 364C442.174 365.378 442.87 368.286 443.739 371.5C444.609 374.868 445.478 377.623 446 379C445.826 377.776 445.13 374.868 444.261 371.5Z" fill="#5D5D5D"/>
<path d="M449.759 366.423C448.552 363.176 447.517 360.238 447 359C447.345 360.392 448.207 363.176 449.241 366.578C450.276 369.98 451.483 372.763 452 374C451.655 372.609 450.793 369.671 449.759 366.423Z" fill="#5D5D5D"/>
<path d="M454.714 361.422C453.571 358.106 452.571 355.264 452 354C452.286 355.422 453.143 358.264 454.286 361.579C455.429 364.895 456.429 367.737 457 369C456.714 367.579 455.857 364.737 454.714 361.422Z" fill="#5D5D5D"/>
<path d="M459.756 355.848C458.22 352.805 456.854 350.066 456 349C456.512 350.218 457.707 352.957 459.244 356.153C460.781 359.348 462.317 361.935 463 363C462.488 361.783 461.293 359.044 459.756 355.848Z" fill="#5D5D5D"/>
<path d="M463.723 350.427C462.234 347.506 460.745 345.023 460 344C460.447 345.169 461.787 347.798 463.277 350.574C464.766 353.495 466.255 355.978 467 357C466.404 355.832 465.213 353.349 463.723 350.427Z" fill="#5D5D5D"/>
<path d="M468.154 344.349C466.308 341.477 464.769 339.059 464 338C464.615 339.21 466 341.78 467.846 344.652C469.692 347.524 471.231 349.942 472 351C471.231 349.791 469.846 347.221 468.154 344.349Z" fill="#5D5D5D"/>
<path d="M471.655 338.422C469.638 335.602 467.931 333.096 467 332C467.621 333.253 469.328 335.759 471.345 338.578C473.362 341.398 475.069 343.904 476 345C475.224 343.904 473.672 341.241 471.655 338.422Z" fill="#5D5D5D"/>
<path d="M474.79 331.924C472.758 329.19 471.016 327.063 470 326C470.726 327.063 472.323 329.494 474.355 332.076C476.387 334.81 478.129 336.937 479 338C478.419 336.937 476.823 334.506 474.79 331.924Z" fill="#5D5D5D"/>
<path d="M477.662 325.684C475.235 323 473.132 320.789 472 320C472.809 321.105 474.912 323.474 477.338 326.158C479.765 328.842 481.868 330.895 483 332C482.029 330.737 480.088 328.368 477.662 325.684Z" fill="#5D5D5D"/>
<path d="M479.653 318.857C477.208 316.571 475.069 314.714 474 314C474.917 315 476.903 317 479.347 319.143C481.792 321.429 483.931 323.286 485 324C484.083 323.143 481.944 321.143 479.653 318.857Z" fill="#5D5D5D"/>
<path d="M482.158 311.849C479.474 309.576 477.105 307.758 476 307C476.947 307.91 479.158 309.879 481.842 312.152C484.526 314.425 486.895 316.243 488 317C487.053 315.94 484.842 313.97 482.158 311.849Z" fill="#5D5D5D"/>
<path d="M483.663 305.279C480.738 303.213 478.137 301.59 477 301C478.137 301.885 480.413 303.656 483.338 305.721C486.263 307.787 488.863 309.41 490 310C489.025 308.967 486.588 307.197 483.663 305.279Z" fill="#5D5D5D"/>
<path d="M484.655 297.857C481.714 296.143 479.238 294.571 478 294C479.083 294.857 481.56 296.429 484.345 298.143C487.286 299.857 489.762 301.286 491 302C490.071 301.286 487.595 299.571 484.655 297.857Z" fill="#5D5D5D"/>
<path d="M485.575 290.765C482.736 289.04 480.195 287.628 479 287C480.046 287.785 482.586 289.353 485.425 291.236C488.414 292.961 490.805 294.373 492 295C490.805 294.216 488.414 292.491 485.575 290.765Z" fill="#5D5D5D"/>
<path d="M485.156 283.267C482.044 281.711 479.244 280.467 478 280C479.244 280.778 481.733 282.178 484.844 283.733C487.956 285.289 490.756 286.533 492 287C490.911 286.222 488.267 284.822 485.156 283.267Z" fill="#5D5D5D"/>
<path d="M485.075 276.77C481.914 275.385 479.204 274.308 478 274C479.204 274.616 481.763 275.847 484.925 277.231C488.086 278.616 490.796 279.539 492 280C490.796 279.385 488.086 278.154 485.075 276.77Z" fill="#5D5D5D"/>
<path d="M484.579 269.273C481.263 268.212 478.263 267.303 477 267C478.263 267.606 481.105 268.667 484.421 269.727C487.737 270.788 490.737 271.697 492 272C490.737 271.394 487.895 270.333 484.579 269.273Z" fill="#5D5D5D"/>
<path d="M483.577 262.222C480.175 261.111 477.392 260.185 476 260C477.237 260.556 480.175 261.667 483.423 262.778C486.825 263.889 489.608 264.63 491 265C489.763 264.444 486.825 263.519 483.577 262.222Z" fill="#5D5D5D"/>
<path d="M482.081 255.286C478.525 254.571 475.455 254.143 474 254C475.293 254.429 478.364 255 481.919 255.714C485.475 256.429 488.545 256.857 490 257C488.545 256.714 485.475 256 482.081 255.286Z" fill="#5D5D5D"/>
<path d="M480 248.8C476.48 248.4 473.44 248.134 472 248C473.44 248.267 476.48 248.667 480 249.2C483.52 249.6 486.56 249.867 488 250C486.56 249.734 483.52 249.334 480 248.8Z" fill="#5D5D5D"/>
<path d="M477.5 241.667C474.2 241.223 471.2 241 470 241C471.35 241.445 474.2 241.889 477.5 242.334C480.8 242.778 483.8 243 485 243C483.65 242.556 480.8 242.112 477.5 241.667Z" fill="#5D5D5D"/>
<path d="M474.5 235C471.2 235 468.2 235 467 235C468.35 235.333 471.2 235.667 474.5 236C477.95 236 480.8 236 482 236C480.65 235.333 477.8 235 474.5 235Z" fill="#5D5D5D"/>
<path d="M471.5 229.2C468.2 229.4 465.2 229.6 464 230C465.35 230 468.2 230 471.5 229.8C474.8 229.6 477.8 229.2 479 229C477.65 229 474.8 229.2 471.5 229.2Z" fill="#5D5D5D"/>
<path d="M467.5 222.727C464.2 223.091 461.35 223.636 460 224C461.35 224 464.2 223.636 467.5 223.273C470.8 222.909 473.65 222.364 475 222C473.8 222 470.8 222.364 467.5 222.727Z" fill="#5D5D5D"/>
<path d="M463.84 217.236C460.32 217.942 457.28 218.648 456 219C457.44 218.824 460.48 218.471 464 217.765C467.52 217.059 470.56 216.353 472 216C470.4 216.177 467.36 216.53 463.84 217.236Z" fill="#5D5D5D"/>
<path d="M459.5 211.305C456.133 211.957 453.378 212.609 452 213C453.378 212.87 456.286 212.348 459.5 211.696C462.867 211.044 465.622 210.392 467 210C465.622 210.261 462.714 210.653 459.5 211.305Z" fill="#5D5D5D"/>
<path d="M454.423 206.241C451.175 207.448 448.237 208.483 447 209C448.392 208.655 451.175 207.793 454.577 206.759C457.979 205.552 460.763 204.517 462 204C460.608 204.172 457.67 205.034 454.423 206.241Z" fill="#5D5D5D"/>
<path d="M449.422 200.743C446.106 202.114 443.264 203.314 442 204C443.422 203.657 446.264 202.629 449.579 201.257C452.895 199.886 455.737 198.686 457 198C455.737 198.343 452.737 199.543 449.422 200.743Z" fill="#5D5D5D"/>
<path d="M444.258 196.244C441.032 197.78 438.129 199.317 437 200C438.29 199.488 441.194 198.293 444.581 196.756C447.968 195.22 450.71 193.683 452 193C450.387 193.512 447.484 194.707 444.258 196.244Z" fill="#5D5D5D"/>
<path d="M438.427 192.277C435.506 193.766 433.022 195.255 432 196C433.169 195.553 435.652 194.213 438.573 192.723C441.494 191.234 443.978 189.745 445 189C443.831 189.447 441.348 190.638 438.427 192.277Z" fill="#5D5D5D"/>
<path d="M432.349 187.693C429.477 189.539 427.058 191.077 426 192C427.209 191.385 429.779 190 432.651 188.154C435.523 186.308 437.942 184.77 439 184C437.791 184.462 435.221 185.847 432.349 187.693Z" fill="#5D5D5D"/>
<path d="M426.422 184.345C423.602 186.362 421.096 188.069 420 189C421.253 188.379 423.759 186.672 426.578 184.655C429.398 182.638 431.904 180.931 433 180C431.904 180.776 429.398 182.483 426.422 184.345Z" fill="#5D5D5D"/>
<path d="M419.924 181.21C417.342 183.242 415.063 184.984 414 186C415.063 185.275 417.494 183.678 420.076 181.646C422.81 179.613 424.937 177.726 426 177C424.937 177.436 422.658 179.178 419.924 181.21Z" fill="#5D5D5D"/>
<path d="M413.76 178.338C411.04 180.765 408.8 182.868 408 184C409.12 183.191 411.52 181.088 414.08 178.662C416.8 176.235 418.88 173.971 420 173C418.72 173.971 416.32 175.912 413.76 178.338Z" fill="#5D5D5D"/>
<path d="M406.343 175.834C403.829 178.5 401.786 180.834 401 182C402.1 181 404.3 178.834 406.657 176.167C409.171 173.5 411.214 171.167 412 170C411.057 170.834 408.857 173.167 406.343 175.834Z" fill="#5D5D5D"/>
<path d="M399.848 173.843C397.576 176.527 395.758 178.895 395 180C395.909 179.053 397.879 176.843 400.152 174.158C402.424 171.474 404.242 169.106 405 168C404.091 168.948 402.121 171.158 399.848 173.843Z" fill="#5D5D5D"/>
<path d="M392.754 172.338C390.623 175.263 388.656 177.863 388 179C388.984 177.863 390.951 175.425 393.246 172.663C395.541 169.738 397.344 167.137 398 166C397.016 166.975 395.049 169.413 392.754 172.338Z" fill="#5D5D5D"/>
<path d="M385.857 171.346C384.143 174.286 382.571 176.762 382 178C382.857 176.917 384.429 174.441 386.143 171.655C387.857 168.715 389.286 166.239 390 165C389.286 166.084 387.714 168.405 385.857 171.346Z" fill="#5D5D5D"/>
<path d="M378.765 170.759C377.039 173.817 375.627 176.552 375 178C375.784 176.874 377.353 174.138 379.235 171.081C380.961 167.863 382.373 165.127 383 164C382.216 164.966 380.647 167.541 378.765 170.759Z" fill="#5D5D5D"/>
<path d="M371.5 384C427.007 384 472 339.007 472 283.5C472 227.993 427.007 183 371.5 183C315.993 183 271 227.993 271 283.5C271 339.007 315.993 384 371.5 384ZM466.588 279.944C466.588 279.944 467.207 297.415 462.105 313.032C457.002 328.802 446.334 342.563 446.334 342.563C441.232 348.593 433.501 348.438 429.326 342.099C425.152 335.76 417.73 324.628 412.937 317.361L404.742 304.837C399.949 297.57 402.732 289.221 410.772 286.128L424.842 280.872C433.037 277.779 445.406 273.141 452.673 270.512C459.631 267.575 466.125 271.904 466.588 279.944ZM397.321 191.968C397.321 191.968 414.019 196.761 427.471 206.502C440.922 216.242 450.663 230.622 450.663 230.622C454.838 237.425 452.209 244.692 444.942 246.702C437.521 248.712 424.688 252.268 416.338 254.587L401.959 258.607C393.61 260.926 386.343 255.669 386.034 247.011L385.415 232.013C385.106 223.355 384.488 210.058 384.024 202.327C383.56 194.751 389.59 190.112 397.321 191.968ZM381.241 321.69L390.518 333.441C395.929 340.244 404.278 350.603 409.072 356.633C413.865 362.663 411.7 369.93 404.278 373.022C404.278 373.022 387.889 378.898 371.345 378.898C354.802 378.898 338.412 373.022 338.412 373.022C330.991 369.93 328.826 362.663 333.619 356.633C338.412 350.603 346.762 340.244 352.173 333.441L361.45 321.69C367.016 314.887 375.829 314.887 381.241 321.69ZM292.337 230.622C292.337 230.622 302.078 216.242 315.529 206.502C328.981 196.761 345.679 191.968 345.679 191.968C353.41 190.112 359.44 194.751 359.131 202.482C358.822 210.058 358.203 223.509 357.739 232.168L357.121 247.165C356.812 255.824 349.545 261.081 341.195 258.762L326.816 254.742C318.467 252.422 305.634 248.866 298.212 246.856C290.791 244.537 288.162 237.425 292.337 230.622ZM290.327 270.358C297.439 272.986 309.963 277.779 318.158 280.717L332.228 285.974C340.422 289.066 343.051 297.415 338.258 304.682L330.063 317.206C325.27 324.473 317.848 335.605 313.674 341.945C309.499 348.284 301.768 348.593 296.666 342.408C296.666 342.408 285.998 328.648 280.895 313.032C275.793 297.261 276.412 279.944 276.412 279.944C276.875 271.904 283.215 267.575 290.327 270.358Z" fill="white"/>
<path d="M366 260.5C366 257.528 368.757 255 372 255C375.243 255 378 257.528 378 260.5C378 263.473 375.243 266 372 266C368.595 266 366 263.473 366 260.5Z" fill="#4A4A4A"/>
<path d="M369 260.5C369 258.5 370.286 257 372 257C373.714 257 375 258.5 375 260.5C375 262.5 373.714 264 372 264C370.286 264 369 262.334 369 260.5Z" fill="#BABABA"/>
<path d="M370 260C370 259 370.833 258 372 258C373 258 374 258.834 374 260C374 261 373.167 262 372 262C370.833 262 370 261 370 260Z" fill="#E0E0E0"/>
<path d="M347.849 281.684C344.997 280.789 343.346 277.657 344.247 274.824C345.148 271.99 348.3 270.35 351.152 271.245C354.004 272.14 355.655 275.271 354.754 278.254C353.853 281.087 350.851 282.727 347.849 281.684Z" fill="#4A4A4A"/>
<path d="M348.404 279.79C346.548 279.115 345.535 277.259 346.21 275.403C346.885 273.547 348.741 272.535 350.597 273.21C352.453 273.885 353.466 275.741 352.791 277.597C352.285 279.453 350.26 280.465 348.404 279.79Z" fill="#BABABA"/>
<path d="M348.984 277.92C348.209 277.662 347.822 276.758 348.08 275.984C348.338 275.209 349.242 274.821 350.017 275.08C350.792 275.338 351.179 276.242 350.921 277.016C350.663 277.791 349.759 278.179 348.984 277.92Z" fill="#E0E0E0"/>
<path d="M362.868 306.57C360.921 309.166 357.189 309.815 354.431 307.868C351.835 305.921 351.185 302.189 353.133 299.43C355.08 296.834 358.812 296.185 361.57 298.132C364.166 300.079 364.815 303.811 362.868 306.57Z" fill="#4A4A4A"/>
<path d="M360.402 304.762C359.392 306.084 357.516 306.377 356.217 305.496C354.918 304.468 354.63 302.559 355.495 301.238C356.506 299.916 358.382 299.623 359.681 300.504C361.124 301.532 361.413 303.441 360.402 304.762Z" fill="#BABABA"/>
<path d="M359.585 304.162C358.892 305.056 357.679 305.235 356.813 304.698C355.946 303.983 355.773 302.732 356.293 301.838C356.986 300.944 358.199 300.765 359.065 301.302C360.104 301.838 360.278 303.268 359.585 304.162Z" fill="#E0E0E0"/>
<path d="M389.962 299.43C391.747 302.026 391.152 305.921 388.772 307.868C386.244 309.815 382.823 309.166 381.038 306.57C379.253 303.974 379.848 300.079 382.228 298.132C384.756 296.185 388.177 296.834 389.962 299.43Z" fill="#4A4A4A"/>
<path d="M388.314 301.297C389.473 302.574 389.142 304.419 387.486 305.412C385.997 306.405 383.845 306.121 382.686 304.703C381.527 303.426 381.858 301.581 383.514 300.588C385.169 299.595 387.321 299.879 388.314 301.297Z" fill="#BABABA"/>
<path d="M387.597 301.812C388.269 302.678 388.101 303.891 387.092 304.584C386.252 305.277 385.076 305.104 384.403 304.064C383.731 303.198 383.899 301.985 384.908 301.292C385.748 300.773 386.924 300.946 387.597 301.812Z" fill="#E0E0E0"/>
<path d="M392.853 271.259C395.698 270.36 398.843 271.858 399.741 274.853C400.64 277.698 399.142 280.843 396.147 281.741C393.302 282.64 390.157 281.142 389.259 278.147C388.36 275.302 389.858 272.307 392.853 271.259Z" fill="#4A4A4A"/>
<path d="M393.403 273.21C395.259 272.535 397.284 273.547 397.79 275.403C398.465 277.259 397.453 279.284 395.597 279.79C393.741 280.465 391.716 279.453 391.21 277.597C390.535 275.741 391.547 273.716 393.403 273.21Z" fill="#BABABA"/>
<path d="M393.984 275.08C394.758 274.821 395.662 275.209 395.92 275.984C396.179 276.758 395.791 277.662 395.016 277.92C394.242 278.179 393.338 277.791 393.08 277.016C392.821 276.242 393.209 275.338 393.984 275.08Z" fill="#E0E0E0"/>
<path d="M386 284C386 291.778 379.778 298 372 298C364.222 298 358 291.778 358 284C358 276.222 364.222 270 372 270C379.778 270.156 386 276.378 386 284Z" fill="#5D5D5D"/>
<path d="M409.455 356.846C404.686 350.846 396.379 340.538 390.995 333.769L381.765 322.077C376.381 315.308 367.612 315.308 362.228 322.077L352.998 333.769C347.614 340.538 339.307 350.846 334.538 356.846C329.769 362.846 331.923 370.077 339.307 373.154C339.307 373.154 355.613 379 372.073 379C388.533 379 404.84 373.154 404.84 373.154C412.07 370.077 414.224 362.692 409.455 356.846ZM396.841 368.077C396.841 368.077 384.534 372.538 372.073 372.538C359.613 372.538 347.306 368.077 347.306 368.077C341.768 365.769 340.076 360.231 343.768 355.769C347.306 351.308 353.613 343.462 357.613 338.385L364.689 329.615C368.689 324.538 375.458 324.538 379.457 329.615L386.534 338.385C390.533 343.462 396.841 351.308 400.379 355.769C403.917 360.385 402.379 365.923 396.841 368.077Z" fill="#C2C2C2"/>
<path d="M453.117 270.84C446.033 273.456 433.56 278.227 425.398 281.151L411.384 286.383C403.223 289.461 400.605 297.771 405.379 305.003L413.54 317.468C418.314 324.701 425.706 335.781 429.864 342.09C434.022 348.4 441.721 348.708 446.803 342.552C446.803 342.552 457.429 328.856 462.511 313.313C467.592 297.617 466.977 280.381 466.977 280.381C466.515 272.379 460.201 268.07 453.117 270.84ZM460.047 286.383C460.047 286.383 460.509 299.463 456.659 311.313C452.809 323.162 444.801 333.473 444.801 333.473C440.951 338.089 435.1 337.935 432.02 333.011C428.786 328.24 423.242 319.777 419.7 314.391L413.54 305.003C409.998 299.617 412 293.154 418.16 290.846L428.632 286.845C434.792 284.536 444.185 280.997 449.575 278.996C454.811 277.15 459.585 280.381 460.047 286.383Z" fill="#C2C2C2"/>
<path d="M384.011 202.673C384.322 210.182 384.944 223.515 385.41 232.097L386.031 246.963C386.342 255.545 393.643 260.755 402.032 258.456L416.48 254.472C424.869 252.173 437.763 248.648 445.22 246.656C452.677 244.664 455.163 237.461 450.968 230.718C450.968 230.718 441.181 216.465 427.665 206.811C414.15 197.156 397.372 192.405 397.372 192.405C389.759 190.566 383.701 195.164 384.011 202.673ZM401.256 200.987C401.256 200.987 413.994 204.665 424.092 211.868C434.19 219.224 441.647 229.952 441.647 229.952C444.754 235.009 442.89 240.373 437.297 241.905C431.705 243.438 421.917 246.043 415.548 247.882L404.673 250.794C398.304 252.48 392.867 248.648 392.556 242.058L392.09 230.871C391.779 224.435 391.313 214.32 391.158 208.65C390.692 203.133 395.352 199.608 401.256 200.987Z" fill="#C2C2C2"/>
<path d="M298.709 246.683C306.053 248.671 318.751 252.188 327.013 254.482L341.241 258.458C349.503 260.751 356.694 255.552 357 246.988L357.612 232.155C358.071 223.591 358.53 210.44 358.989 202.794C359.295 195.301 353.328 190.56 345.678 192.395C345.678 192.395 329.155 197.136 315.844 206.77C302.534 216.404 292.895 230.626 292.895 230.626C288.917 237.507 291.365 244.542 298.709 246.683ZM302.381 230.014C302.381 230.014 309.724 219.309 319.669 211.969C329.614 204.782 342.159 201.112 342.159 201.112C347.973 199.735 352.563 203.253 352.257 208.911C351.951 214.569 351.492 224.509 351.339 231.084L350.88 242.248C350.574 248.67 345.219 252.646 338.946 250.964L328.237 248.059C321.964 246.377 312.325 243.624 306.817 242.095C301.157 240.566 299.168 235.213 302.381 230.014Z" fill="#C2C2C2"/>
<path d="M314.221 342.066C318.371 335.752 325.749 324.664 330.514 317.427L338.66 304.953C343.425 297.715 340.658 289.4 332.666 286.32L318.678 281.084C310.532 278.004 298.235 273.384 291.011 270.766C283.94 268.148 277.638 272.46 277.023 280.314C277.023 280.314 276.409 297.715 281.481 313.269C286.553 328.976 297.159 342.682 297.159 342.682C302.385 348.687 310.071 348.379 314.221 342.066ZM299.465 333.442C299.465 333.442 291.472 323.124 287.629 311.267C283.787 299.409 284.248 286.32 284.248 286.32C284.709 280.314 289.474 277.08 294.854 279.082C300.233 281.084 309.609 284.626 315.758 286.936L326.21 290.94C332.358 293.249 334.356 299.563 330.821 305.107L324.673 314.501C321.138 319.89 315.604 328.36 312.376 333.134C309.148 337.908 303.461 338.062 299.465 333.442Z" fill="#C2C2C2"/>
<path d="M382 284C382 289.455 377.606 294 372 294C366.545 294 362 289.606 362 284C362 278.545 366.394 274 372 274C377.606 274.152 382 278.545 382 284Z" fill="#2A2A2A"/>
</g>
<path d="M372 394L245 393.703C245.31 389.835 247.168 388.347 249.491 386.413C251.97 384.331 257.08 381.802 257.08 376C257.08 376 336.998 388.645 372 388.942" fill="#5D5D5D"/>
<path d="M372 389.188C353.711 388.406 324.108 384.5 299 382C299 382 305.2 386.531 314.809 389.188C323.023 391.531 356.346 391.844 372 392" fill="#4A4A4A"/>
<path d="M290.934 387C290.934 387 291.083 387 290.934 387C290.19 386.625 289.595 386.375 289 386C289.446 386.375 289.893 386.75 290.934 387Z" fill="#5D5D5D"/>
<path d="M329 393.854C328.059 393.854 327.275 393.854 326.49 393.854C317.392 393.854 312.373 392.25 308.294 391.083C305.784 390.354 303.588 389.625 300.922 389.333C296.529 388.896 293.392 388.021 291.039 387H290.882C289.784 386.708 289.314 386.271 288.843 385.833C287.902 385.104 287.118 384.375 286.804 383.792C286.02 382.188 284.137 380.729 283.51 380.292C282.725 380.146 281.784 380 281 380C281.471 380.437 282.569 381.458 284.608 382.917C285.706 383.792 286.176 384.667 286.647 385.542C287.275 386.708 287.902 388.021 290.412 388.75C292.137 389.333 294.647 389.625 297.314 390.063C300.608 390.5 303.902 391.083 305.627 391.813C306.725 392.25 309.235 393.271 313.314 394L329 393.854Z" fill="#767676"/>
<path d="M286.385 381.34C287.769 382.532 288.385 383.574 288.846 384.468C289 384.915 289.308 385.213 289.462 385.66C290.077 386.106 290.692 386.553 291.615 387C293.154 387.447 295.462 387.894 298.077 388.191C301.462 388.638 304.846 389.234 306.692 390.128C310.846 391.915 318.846 393.851 328.846 393.404V394C329.462 394 330.231 394 331 393.851V392.957C319.154 393.553 313.615 391.766 308.846 390.277C306.385 389.532 304.231 388.787 301.462 388.489C293.923 387.745 289.462 385.362 288.538 383.128C287.923 381.936 286.846 380.894 285.923 380.149C285.615 380.149 285.462 380.149 285 380C285.308 380.447 285.769 380.894 286.385 381.34Z" fill="#3F3F3F"/>
<path d="M306.388 390.128C304.347 389.234 300.893 388.787 297.595 388.191C295.083 387.745 292.57 387.447 291 387C293.355 388.043 296.496 388.936 300.893 389.383C303.562 389.681 305.76 390.277 308.273 391.17C312.355 392.511 317.38 394 326.488 394C327.273 394 328.215 394 329 394V393.404C318.793 393.851 310.628 392.064 306.388 390.128Z" fill="#3F3F3F"/>
<path d="M286.059 381.579C285.471 381.105 285.029 380.632 284.588 380.158C284.441 380.158 284.147 380.158 284 380C284.588 380.474 286.353 382.053 287.088 383.789C287.382 384.579 287.971 385.368 289 386C288.706 385.684 288.559 385.211 288.412 384.737C287.824 383.947 287.382 382.842 286.059 381.579Z" fill="#3F3F3F"/>
<path d="M273.073 378C273.073 378 266.523 378.333 265.899 379.833C265.587 380.5 262 385.5 262 385.5L267.927 386L271.358 382L276.972 381.667L279 378.667L273.073 378Z" fill="#4A4A4A"/>
<path d="M277.63 383C277.63 383 272.609 383.761 272.609 383.913C272.609 384.065 269.87 387.261 269.87 387.261L265 388.022L266.674 390L269.87 388.022L272.609 385.891L275.5 384.37L279 384.217L277.63 383Z" fill="#4A4A4A"/>
<path d="M371.155 394L499 393.703C498.689 389.835 496.825 388.347 494.495 386.413C492.01 384.331 486.884 381.802 486.884 376C486.884 376 406.262 388.496 371 388.793" fill="#5D5D5D"/>
<path d="M372 389.188C390.173 388.563 419.897 384.813 445 382C445 382 438.84 386.531 429.291 389.188C421.129 391.531 387.555 391.844 372 392" fill="#4A4A4A"/>
<path d="M453.109 387C452.964 387 452.964 387 453.109 387C453.836 386.625 454.418 386.375 455 386C454.564 386.375 454.127 386.625 453.109 387Z" fill="#5D5D5D"/>
<path d="M415 393.854C415.922 393.854 416.69 393.854 417.458 393.854C426.366 393.854 431.281 392.25 435.274 391.083C437.732 390.354 439.882 389.625 442.493 389.333C446.794 388.896 449.866 388.021 452.17 387H452.324C453.399 386.708 453.859 386.271 454.32 385.833C455.242 385.104 456.01 384.375 456.317 383.792C457.085 382.188 458.928 380.729 459.542 380.292C460.31 380.146 461.232 380 462 380C461.539 380.437 460.464 381.458 458.467 382.917C457.392 383.792 456.931 384.667 456.471 385.542C455.856 386.708 455.242 388.021 452.784 388.75C451.095 389.333 448.637 389.625 446.026 390.063C442.801 390.5 439.575 391.083 437.886 391.813C436.81 392.25 434.353 393.271 430.359 394L415 393.854Z" fill="#767676"/>
<path d="M457.765 381.34C456.376 382.532 455.758 383.574 455.295 384.468C455.141 384.915 454.832 385.213 454.678 385.66C454.06 386.106 453.443 386.553 452.517 387C450.973 387.447 448.658 387.894 446.034 388.191C442.792 388.638 439.242 389.234 437.389 390.128C433.221 391.915 425.195 393.851 415.161 393.404V394C414.544 394 413.772 394 413 393.851V392.957C424.886 393.553 430.443 391.766 435.228 390.277C437.698 389.532 439.859 388.787 442.638 388.489C450.201 387.745 454.678 385.362 455.604 383.128C456.221 381.936 457.456 380.894 458.228 380.149C458.537 380.149 458.691 380.149 459 380C458.846 380.447 458.383 380.894 457.765 381.34Z" fill="#3F3F3F"/>
<path d="M437.612 390.128C439.653 389.234 443.107 388.787 446.405 388.191C448.917 387.745 451.43 387.447 453 387C450.645 388.043 447.504 388.936 443.107 389.383C440.438 389.681 438.24 390.277 435.727 391.17C431.645 392.511 426.62 394 417.512 394C416.727 394 415.785 394 415 394V393.404C425.207 393.702 433.372 391.915 437.612 390.128Z" fill="#3F3F3F"/>
<path d="M457.941 381.579C458.529 381.105 458.971 380.632 459.412 380.158C459.559 380.158 459.853 380.158 460 380C459.412 380.474 457.647 382.053 456.912 383.789C456.618 384.579 456.029 385.368 455 386C455.294 385.684 455.441 385.211 455.588 384.737C456.176 384.105 456.618 382.842 457.941 381.579Z" fill="#3F3F3F"/>
<path d="M470.927 378C470.927 378 477.477 378.333 478.101 379.833C478.413 380.5 482 385.5 482 385.5L476.073 386L472.642 382L467.028 381.667L465 378.833L470.927 378Z" fill="#4A4A4A"/>
<path d="M466.37 383C466.37 383 471.391 383.761 471.391 383.913C471.391 384.065 474.13 387.261 474.13 387.261L479 388.022L477.326 390L474.13 388.022L471.391 385.891L468.5 384.37L465 384.217L466.37 383Z" fill="#4A4A4A"/>
<path d="M349.286 388.905C349.143 389.286 348.714 389.667 348.429 390.048C348.143 390.429 348.143 390.81 348 391C348.143 390.81 348.429 390.619 348.571 390.238C348.714 390.048 348.857 389.857 349 389.857C349.143 389.667 349.429 389.476 349.571 389.286C349.714 388.905 349.571 388.524 349.571 388.333C349.429 388.143 349.571 387.952 349.571 387.762C349.714 387.381 350 387.19 350 387C349.857 387 349.571 387.191 349.286 387.571C349.286 387.762 349.143 387.762 349.143 387.952C349.143 388.143 349.143 388.333 349.143 388.524C349.429 388.524 349.429 388.714 349.286 388.905Z" fill="#5D5D5D"/>
<path d="M353.649 389.667C353.541 389.833 353.324 390.167 353.216 390.333C353 390.5 353 390.833 353 391C353.108 390.833 353.216 390.667 353.324 390.5C353.432 390.333 353.757 390.167 353.865 389.833C354.081 389.333 353.973 389 353.973 388.667C353.973 388.333 353.973 388.167 353.865 388C353.757 388.167 353.649 388.333 353.649 388.667C353.757 389.167 353.757 389.5 353.649 389.667Z" fill="#5D5D5D"/>
<path d="M359.226 389.588C358.736 390.118 358 390.647 358 391C358.245 390.647 358.981 390.471 359.717 389.765C360.207 388.882 359.962 388.176 359.717 388C359.472 388.353 359.472 389.059 359.226 389.588Z" fill="#5D5D5D"/>
<path d="M364.297 389.941C364.297 390.176 364.091 390.412 364.091 390.529C364.091 390.647 363.886 390.882 364.091 391C364.091 390.882 364.297 390.765 364.503 390.647C364.709 390.529 364.915 390.294 364.915 390.059C365.121 389.588 364.915 389.118 364.709 389C364.709 389.118 364.503 389.471 364.297 389.941Z" fill="#5D5D5D"/>
<path d="M368.369 390C368.185 390.222 368 390.444 368 390.556C368 390.778 368 390.889 368 391C368.185 390.889 368.185 390.778 368.369 390.667C368.554 390.556 368.739 390.333 368.923 390.111C369.108 389.556 368.924 389.222 368.739 389C368.554 389.111 368.554 389.556 368.369 390Z" fill="#5D5D5D"/>
<path d="M373.46 389.923C373.326 390.077 373.191 390.231 373.056 390.538C372.921 390.692 373.056 391 373.191 391C373.191 390.692 373.46 390.692 373.865 390.231C374.135 389.615 373.865 389.154 374 389C373.595 389 373.595 389.769 373.46 389.923Z" fill="#5D5D5D"/>
<path d="M377.5 390.085C376.833 390.492 376.333 391.034 376 390.898C376.167 391.034 376.5 391.034 376.833 390.898C377.167 390.763 377.5 390.492 377.833 390.356L378 390.22C378.167 390.085 378.333 390.085 378.5 389.949C378.667 389.814 378.667 389.678 378.833 389.542C379 389.271 379 389.136 379 389C378.667 389.136 378.5 389.678 377.833 389.814C377.667 390.085 377.5 390.085 377.5 390.085Z" fill="#5D5D5D"/>
<path d="M382.874 389.875C382.175 390.375 382.175 390.875 382 391C382.35 391 382.874 390.5 383.223 390.125C383.398 390 383.922 389.75 383.922 389.5C384.097 389.25 383.922 389 383.922 389C383.748 389.125 383.748 389.25 383.573 389.5C383.573 389.5 383.223 389.625 382.874 389.875Z" fill="#5D5D5D"/>
<path d="M389.381 388.913C389.19 389.435 389 389.783 389 390.13C389 390.478 389 390.826 389.19 391C389.19 390.826 389.381 390.478 389.381 390.13C389.381 389.783 389.762 389.435 389.762 389.087C390.143 388.043 389.952 387.348 389.952 387C389.762 387.348 389.762 388.217 389.381 388.913Z" fill="#5D5D5D"/>
<path d="M395.45 388.429C395.3 389 395 389.714 395 390C395.3 389.857 395.599 389.286 395.899 388.571C396.199 387.857 395.749 387.143 395.599 387C395.599 387.286 395.599 387.714 395.45 388.429Z" fill="#5D5D5D"/>
<path d="M309.118 379.179C311.471 377.09 313.971 375.746 315 375C313.824 375.448 311.324 376.642 308.824 378.881C307.647 379.925 306.324 380.97 306.029 382.313C305.882 382.91 305.735 383.507 305.588 383.955C305.441 384.403 305.147 384.701 305 385C305.294 384.851 305.588 384.552 305.735 384.104C306.029 383.657 306.029 383.06 306.324 382.463C306.765 381.269 308.088 380.373 309.118 379.179Z" fill="#5D5D5D"/>
<path d="M315.105 381.615C315.895 380.385 317 379.462 317.947 378.692C318.895 377.923 319.526 377.308 320 377C319.526 377.308 318.737 377.769 317.632 378.538C316.684 379.308 315.579 380.231 314.632 381.462C313.684 382.846 313.684 384.231 313.053 385.308C312.579 386.231 311.632 386.692 311 387C311.474 386.846 312.579 386.538 313.211 385.462C314.158 384.231 314.316 382.692 315.105 381.615Z" fill="#5D5D5D"/>
<path d="M321.93 383.571C323.046 381.857 324.581 380.714 325 380C324.302 380.429 322.767 381.429 321.651 383.286C321.372 383.714 321.093 384.143 320.953 384.571C320.814 385 320.535 385.429 320.256 385.714C319.837 386.429 319.279 386.714 319 387C319.419 386.857 319.977 386.571 320.535 385.857C320.814 385.571 321.093 385.143 321.233 384.714C321.372 384.429 321.651 384 321.93 383.571Z" fill="#5D5D5D"/>
<path d="M326.794 386.16C327.235 385.2 327.529 384.24 327.971 383.6C328.412 382.96 328.853 382.48 329 382C328.706 382.32 328.265 382.64 327.676 383.44C327.235 384.08 326.794 385.04 326.353 386C325.912 386.96 325.765 387.92 325.176 388.56C324.588 389.2 324.147 389.68 324 390C324.294 389.68 324.735 389.36 325.471 388.88C326.059 388.08 326.5 387.12 326.794 386.16Z" fill="#5D5D5D"/>
<path d="M333.941 386.576C334.294 385.364 334.882 384.455 335 384C334.765 384.303 334.059 385.061 333.588 386.424C333.471 386.727 333.353 387.03 333.353 387.333C333.353 387.636 333.353 387.939 333.353 388.091C333.353 388.545 333.118 388.848 333 389C333.118 388.848 333.588 388.697 333.706 388.091C333.706 387.788 333.706 387.182 333.941 386.576Z" fill="#5D5D5D"/>
<path d="M340 386.92C340.429 386.12 340.857 385.32 341 385C340.714 385.16 340.143 385.8 339.714 386.76C339.571 387.24 339.286 387.56 339.143 388.04C339 388.52 339 388.84 339 389C339.143 388.52 339.429 387.72 340 386.92Z" fill="#5D5D5D"/>
<path d="M439.167 377C438.5 373.462 437.5 370.385 437 369C437.167 370.385 438 373.462 438.667 377C439.5 380.538 440 383.769 439.167 385C439.667 384.538 440 383.308 440 381.923C439.833 380.538 439.5 378.846 439.167 377Z" fill="#5D5D5D"/>
<path d="M434 379.66C433.889 377.904 433.667 376.309 433.444 375.032C433.222 373.755 433.111 372.638 433 372C433 372.638 433.111 373.755 433.222 375.032C433.444 376.309 433.556 377.904 433.778 379.5C433.778 380.298 433.778 381.096 433.778 381.894C433.778 382.691 433.667 383.33 433.667 384.128C433.556 385.404 433.444 386.521 433.222 387C433.556 386.521 433.778 385.404 433.889 384.128C434 383.489 434 382.691 434 381.894C434 381.415 434 380.457 434 379.66Z" fill="#5D5D5D"/>
<path d="M428.846 381.5C428.692 378.149 428.538 375.436 428.385 374C428.231 375.277 428.231 378.149 428.385 381.5C428.385 382.298 428.538 383.096 428.538 383.894C428.538 384.532 428.385 385.33 428.231 385.968C427.923 387.245 427.923 388.362 428.231 389C428.077 388.362 428.231 387.404 428.538 386.128C428.692 385.489 428.846 384.851 429 384.053C429 383.096 429 382.298 428.846 381.5Z" fill="#5D5D5D"/>
<path d="M423 383.573C422.836 381.08 423 379.027 422.836 378C422.673 378.88 422.346 381.08 422.509 383.573C422.836 386.067 421.855 387.973 422.019 389C422.182 388.56 422.346 387.827 422.673 386.947C423 385.92 423 384.747 423 383.573Z" fill="#5D5D5D"/>
<path d="M416.973 385.909C417.07 383.618 416.875 381.818 416.875 381C416.778 381.818 416.875 383.782 416.681 385.745C416.584 386.236 416.584 386.891 416.389 387.218C416.292 387.382 416.195 387.545 416.097 387.873C416 388.036 416 388.364 416 388.691C416.097 389.345 416.389 389.182 416.486 389.345C416.584 389.509 416.486 389.836 416.389 390C416.389 390 416.486 389.836 416.486 389.673C416.486 389.509 416.584 389.345 416.486 389.182C416.292 389.018 416.097 388.855 416.097 388.527C416.097 388.2 416.195 387.873 416.486 387.545C416.584 387.382 416.681 387.055 416.681 386.727C416.875 386.4 416.973 386.236 416.973 385.909Z" fill="#5D5D5D"/>
<path d="M411.847 387.07C412.092 386.093 411.969 385.279 411.969 384.628C411.969 383.977 411.969 383.326 411.969 383C411.847 383.326 411.725 383.814 411.725 384.628C411.725 385.279 411.725 386.093 411.48 386.907C411.358 387.721 410.747 388.047 410.38 388.535C409.891 389.023 410.014 389.837 410.014 390C410.014 389.674 410.136 389.023 410.503 388.698C410.992 388.535 411.725 388.047 411.847 387.07Z" fill="#5D5D5D"/>
<path d="M406.1 387.375C406.4 386.875 406.7 386.375 406.85 386C407 385.625 407 385.25 407 385C406.85 385.25 406.7 385.5 406.55 385.875C406.4 386.25 405.95 386.625 405.8 387.125C405.35 387.5 405.05 388 404.75 388.25C404.45 388.625 404.15 388.875 404 389C404.15 388.875 404.6 388.625 404.9 388.375C405.35 388.25 405.8 387.875 406.1 387.375Z" fill="#5D5D5D"/>
<path d="M401.936 387.65C401.694 386.9 401.452 386.3 401.452 386C401.452 386.15 400.968 386.45 400.968 386.75C400.968 387.05 400.968 387.5 401.21 387.8C401.452 388.55 400.484 388.7 400 389C400.242 389 400.726 389 401.21 388.85C401.694 388.55 402.178 387.95 401.936 387.65Z" fill="#5D5D5D"/>
<path d="M200.693 413C192.002 413 185.194 410.692 180.269 406.076C175.344 401.172 172.882 394.248 172.882 385.305V351.552H65.5491C56.5685 351.552 49.3261 349.677 43.8218 345.926C38.6073 342.176 36 336.406 36 328.617C36 323.713 37.1588 318.52 39.4764 313.039C42.0836 307.558 46.5739 300.345 52.9473 291.402L172.013 119.608C176.068 113.549 180.559 108.933 185.484 105.76C190.408 102.587 196.058 101 202.431 101C209.963 101 216.192 103.308 221.116 107.924C226.041 112.251 228.504 119.175 228.504 128.695V305.682H249.796C266.599 305.682 275 313.327 275 328.617C275 343.907 266.599 351.552 249.796 351.552H228.504V385.305C228.504 394.248 226.041 401.172 221.116 406.076C216.192 410.692 209.384 413 200.693 413ZM172.882 305.682V189.277L92.9255 305.682H172.882Z" fill="#6CE9AD"/>
</g>
<path d="M301.725 76.675C296.825 76.675 292.55 75.575 288.9 73.375C285.3 71.125 282.5 67.975 280.5 63.925C278.55 59.875 277.575 55.075 277.575 49.525C277.575 43.975 278.55 39.175 280.5 35.125C282.45 31.075 285.225 27.95 288.825 25.75C292.475 23.55 296.775 22.45 301.725 22.45C306.725 22.45 311.025 23.55 314.625 25.75C318.275 27.95 321.075 31.075 323.025 35.125C325.025 39.125 326.025 43.9 326.025 49.45C326.025 55 325.025 59.825 323.025 63.925C321.025 67.975 318.2 71.125 314.55 73.375C310.95 75.575 306.675 76.675 301.725 76.675ZM301.725 71.2C307.375 71.2 311.75 69.3 314.85 65.5C317.95 61.7 319.5 56.375 319.5 49.525C319.5 42.675 317.95 37.375 314.85 33.625C311.75 29.825 307.375 27.925 301.725 27.925C296.175 27.925 291.85 29.825 288.75 33.625C285.65 37.375 284.1 42.675 284.1 49.525C284.1 56.325 285.65 61.65 288.75 65.5C291.85 69.3 296.175 71.2 301.725 71.2ZM351.345 76.675C347.795 76.675 344.72 75.9 342.12 74.35C339.52 72.8 337.495 70.625 336.045 67.825C334.645 64.975 333.945 61.625 333.945 57.775C333.945 53.925 334.645 50.6 336.045 47.8C337.495 44.95 339.52 42.75 342.12 41.2C344.72 39.65 347.795 38.875 351.345 38.875C354.845 38.875 357.895 39.65 360.495 41.2C363.145 42.75 365.17 44.95 366.57 47.8C368.02 50.6 368.745 53.925 368.745 57.775C368.745 61.625 368.02 64.975 366.57 67.825C365.17 70.625 363.145 72.8 360.495 74.35C357.895 75.9 354.845 76.675 351.345 76.675ZM351.345 71.8C354.745 71.8 357.47 70.6 359.52 68.2C361.57 65.75 362.595 62.275 362.595 57.775C362.595 53.225 361.57 49.75 359.52 47.35C357.47 44.95 354.745 43.75 351.345 43.75C347.895 43.75 345.145 44.95 343.095 47.35C341.095 49.75 340.095 53.225 340.095 57.775C340.095 62.275 341.095 65.75 343.095 68.2C345.145 70.6 347.895 71.8 351.345 71.8ZM380.87 90.025C378.87 90.025 377.87 89 377.87 86.95V42.1C377.87 40.05 378.845 39.025 380.795 39.025C382.845 39.025 383.87 40.05 383.87 42.1V46C384.92 43.8 386.545 42.075 388.745 40.825C390.945 39.525 393.47 38.875 396.32 38.875C399.57 38.875 402.395 39.65 404.795 41.2C407.245 42.7 409.12 44.875 410.42 47.725C411.77 50.525 412.445 53.875 412.445 57.775C412.445 61.625 411.77 64.975 410.42 67.825C409.12 70.625 407.245 72.8 404.795 74.35C402.395 75.9 399.57 76.675 396.32 76.675C393.52 76.675 391.02 76.05 388.82 74.8C386.62 73.55 384.995 71.825 383.945 69.625V86.95C383.945 89 382.92 90.025 380.87 90.025ZM395.045 71.8C398.445 71.8 401.17 70.6 403.22 68.2C405.27 65.75 406.295 62.275 406.295 57.775C406.295 53.225 405.27 49.75 403.22 47.35C401.17 44.95 398.445 43.75 395.045 43.75C391.645 43.75 388.92 44.95 386.87 47.35C384.82 49.75 383.795 53.225 383.795 57.775C383.795 62.275 384.82 65.75 386.87 68.2C388.92 70.6 391.645 71.8 395.045 71.8ZM433.896 76.675C431.646 76.675 429.371 76.4 427.071 75.85C424.821 75.25 422.721 74.3 420.771 73C419.871 72.45 419.421 71.75 419.421 70.9C419.471 70 419.821 69.3 420.471 68.8C421.121 68.3 421.946 68.3 422.946 68.8C424.896 70 426.771 70.85 428.571 71.35C430.421 71.8 432.246 72.025 434.046 72.025C436.896 72.025 439.046 71.5 440.496 70.45C441.946 69.4 442.671 67.975 442.671 66.175C442.671 64.775 442.196 63.675 441.246 62.875C440.296 62.025 438.796 61.375 436.746 60.925L429.921 59.425C423.721 58.075 420.621 54.875 420.621 49.825C420.621 46.525 421.921 43.875 424.521 41.875C427.171 39.875 430.621 38.875 434.871 38.875C437.021 38.875 439.096 39.175 441.096 39.775C443.096 40.325 444.896 41.225 446.496 42.475C447.346 43.075 447.721 43.8 447.621 44.65C447.521 45.5 447.121 46.175 446.421 46.675C445.771 47.125 444.971 47.05 444.021 46.45C442.521 45.45 440.996 44.725 439.446 44.275C437.896 43.775 436.371 43.525 434.871 43.525C432.071 43.525 429.946 44.075 428.496 45.175C427.046 46.275 426.321 47.725 426.321 49.525C426.321 52.325 428.171 54.125 431.871 54.925L438.696 56.35C441.896 57.05 444.321 58.175 445.971 59.725C447.621 61.225 448.446 63.275 448.446 65.875C448.446 69.225 447.121 71.875 444.471 73.825C441.821 75.725 438.296 76.675 433.896 76.675ZM460.629 62.575C459.329 62.575 458.629 61.775 458.529 60.175L457.029 26.575C456.979 25.375 457.254 24.425 457.854 23.725C458.504 22.975 459.429 22.6 460.629 22.6C461.779 22.6 462.654 22.975 463.254 23.725C463.854 24.425 464.129 25.375 464.079 26.575L462.579 60.175C462.529 61.775 461.879 62.575 460.629 62.575ZM460.629 76.3C459.379 76.3 458.379 75.925 457.629 75.175C456.879 74.375 456.504 73.375 456.504 72.175C456.504 70.975 456.879 70 457.629 69.25C458.379 68.45 459.379 68.05 460.629 68.05C461.879 68.05 462.854 68.45 463.554 69.25C464.304 70 464.679 70.975 464.679 72.175C464.679 73.375 464.304 74.375 463.554 75.175C462.854 75.925 461.879 76.3 460.629 76.3Z" fill="#13254A"/>
</svg>
