<svg width="24" height="24" viewBox="0 0 24 24" fill="none" xmlns="http://www.w3.org/2000/svg">
<path d="M8.25867 15.222L7.29967 18.801L5.36767 18.284L5.82567 16.574L3.48567 17.874L2.51367 16.126L4.60267 14.965L3.24067 14.6L3.75867 12.668L7.11767 13.568L9.93967 12L7.11767 10.432L3.75967 11.332L3.24167 9.4L4.60367 9.035L2.51367 7.874L3.48567 6.126L5.82667 7.427L5.36867 5.716L7.30067 5.199L8.25967 8.778L10.9997 10.301V7.071L8.45867 4.53L9.87267 3.116L10.9997 4.242V2H12.9997V4.243L14.1277 3.115L15.5417 4.53L12.9997 7.071V10.301L15.7407 8.778L16.6997 5.199L18.6317 5.716L18.1737 7.426L20.5137 6.126L21.4857 7.874L19.3967 9.035L20.7587 9.4L20.2407 11.332L16.8817 10.432L14.0587 12L16.8837 13.57L20.2407 12.669L20.7587 14.601L19.3977 14.966L21.4857 16.126L20.5137 17.874L18.1727 16.574L18.6317 18.286L16.6997 18.803L15.7407 15.222L12.9997 13.7V16.929L15.5407 19.47L14.1267 20.884L12.9997 19.757V22H10.9997V19.757L9.87167 20.884L8.45767 19.47L10.9997 16.929V13.699L8.25867 15.222Z" fill="#6CE9AD"/>
</svg>
