<svg width="312" height="336" viewBox="0 0 312 336" fill="none" xmlns="http://www.w3.org/2000/svg">
<mask id="mask0" mask-type="alpha" maskUnits="userSpaceOnUse" x="0" y="0" width="312" height="336">
<path d="M0 0H312V336H0V0Z" fill="#C4C4C4"/>
</mask>
<g mask="url(#mask0)">
<g opacity="0.15">
<path fill-rule="evenodd" clip-rule="evenodd" d="M235.636 26.771C303.782 47.5133 353.809 111.336 353.809 187.524C353.809 280.067 279.754 355.058 188.367 355.058C170.247 355.058 152.915 352.266 136.765 346.682L261.24 177.153C262.816 175.159 263.21 171.967 262.028 169.574C260.846 167.181 258.483 165.585 255.725 165.585H191.124L236.03 26.771H235.636Z" fill="#6CE9AD"/>
<path fill-rule="evenodd" clip-rule="evenodd" d="M188.367 19.9951C199.79 19.9951 210.819 21.1918 221.455 23.1862L107.221 199.496C105.646 201.491 105.646 204.682 106.827 206.676C108.009 209.07 110.372 210.266 113.13 210.266H174.58L122.978 340.704C64.285 314.776 23.3184 255.74 23.3184 187.131C23.3184 94.5877 97.3734 19.5962 188.76 19.5962L188.367 19.9951Z" fill="#6CE9AD"/>
</g>
</g>
</svg>
