<svg width="1920" height="1003" viewBox="0 0 1920 1003" fill="none" xmlns="http://www.w3.org/2000/svg">
<mask id="mask0" mask-type="alpha" maskUnits="userSpaceOnUse" x="0" y="0" width="1920" height="1003">
<rect width="1920" height="1003" fill="white"/>
</mask>
<g mask="url(#mask0)">
<g opacity="0.1">
<path fill-rule="evenodd" clip-rule="evenodd" d="M1676.44 -301.47C1950.68 -219.039 2152 34.5953 2152 337.372C2152 705.142 1853.98 1003.16 1486.21 1003.16C1413.29 1003.16 1343.54 992.066 1278.55 969.873L1779.47 296.156C1785.82 288.23 1787.4 275.548 1782.64 266.037C1777.89 256.526 1768.38 250.185 1757.28 250.185H1497.31L1678.02 -301.47H1676.44Z" fill="#5B74F9"/>
<path fill-rule="evenodd" clip-rule="evenodd" d="M1486.21 -328.415C1532.18 -328.415 1576.56 -323.659 1619.36 -315.733L1159.65 384.932C1153.31 392.858 1153.31 405.54 1158.07 413.466C1162.82 422.977 1172.33 427.733 1183.43 427.733H1430.72L1223.06 946.099C986.862 843.06 822 608.448 822 335.791C822 -31.9794 1120.02 -330 1487.79 -330L1486.21 -328.415Z" fill="#67CD8E"/>
</g>
</g>
</svg>
