<svg width="30" height="30" viewBox="0 0 30 30" fill="none" xmlns="http://www.w3.org/2000/svg">
<path fill-rule="evenodd" clip-rule="evenodd" d="M5.17484 0.78756C6.12776 0.41676 7.21892 0.16356 8.81576 0.0908401C10.416 0.0169201 10.9276 0 15.0012 0C19.0747 0 19.586 0.0181201 21.1854 0.0908401C22.781 0.16236 23.8716 0.41676 24.8263 0.78756C25.8114 1.17048 26.6487 1.68288 27.4822 2.51772C28.3158 3.35256 28.8284 4.1886 29.2124 5.17488C29.5832 6.1278 29.8364 7.21884 29.9091 8.8158C29.9818 10.4152 29.9988 10.9265 29.9988 15C29.9988 19.0735 29.9818 19.5836 29.9091 21.1842C29.8376 22.781 29.5832 23.8716 29.2124 24.8251C28.8284 25.8114 28.3171 26.6488 27.4822 27.4823C26.6474 28.3158 25.8114 28.8284 24.8251 29.2124C23.8716 29.5832 22.7811 29.8364 21.1842 29.9092C19.5848 29.9831 19.0735 30 15 30C10.9264 30 10.416 29.9819 8.81576 29.9092C7.21892 29.8364 6.12956 29.5832 5.17484 29.2124C4.18796 28.8284 3.3524 28.3154 2.51768 27.4823C1.68296 26.6491 1.17044 25.8114 0.787522 24.8251C0.416722 23.8716 0.163522 22.7812 0.090802 21.1842C0.0168819 19.5848 -3.8147e-05 19.0735 -3.8147e-05 15C-3.8147e-05 10.9265 0.0168819 10.4152 0.090802 8.8158C0.163522 7.21896 0.416722 6.1284 0.787522 5.17488C1.17044 4.188 1.68284 3.35124 2.51768 2.51772C3.35252 1.6842 4.18796 1.17048 5.17484 0.78756ZM8.93998 27.2096C7.47754 27.143 6.68266 26.8994 6.15442 26.6936C5.4541 26.421 4.95442 26.0963 4.42906 25.5716C3.9037 25.047 3.5785 24.5478 3.30706 23.8475C3.10114 23.3195 2.85754 22.5243 2.79106 21.0619C2.71834 19.4808 2.70382 19.0058 2.70382 15.0001C2.70382 10.9944 2.71954 10.5207 2.79106 8.93831C2.85766 7.47587 3.10306 6.68231 3.30706 6.15275C3.5797 5.45243 3.90442 4.95275 4.42906 4.42739C4.9537 3.90203 5.4529 3.57683 6.15442 3.30539C6.68242 3.09947 7.47754 2.85587 8.93998 2.78939C10.5211 2.71667 10.9961 2.70215 15 2.70215C19.0039 2.70215 19.4793 2.71787 21.0618 2.78939C22.5242 2.85599 23.3178 3.10139 23.8473 3.30539C24.5477 3.57683 25.0473 3.90275 25.5727 4.42739C26.0981 4.95203 26.4221 5.45243 26.6947 6.15275C26.9006 6.68075 27.1442 7.47587 27.2107 8.93831C27.2834 10.5207 27.2979 10.9944 27.2979 15.0001C27.2979 19.0058 27.2834 19.4795 27.2107 21.0619C27.1441 22.5243 26.8993 23.3192 26.6947 23.8475C26.4221 24.5478 26.0973 25.0475 25.5727 25.5716C25.0481 26.0958 24.5477 26.421 23.8473 26.6936C23.3193 26.8995 22.5242 27.1431 21.0618 27.2096C19.4807 27.2823 19.0057 27.2969 15 27.2969C10.9943 27.2969 10.5206 27.2823 8.93998 27.2096ZM23.0065 8.79287C22.0124 8.79247 21.2068 7.98626 21.2072 6.99215C21.2081 5.99851 22.0136 5.19333 23.0072 5.19287H23.008C24.0021 5.19327 24.8076 5.99948 24.8072 6.99359C24.8068 7.9877 24.0006 8.79327 23.0065 8.79287ZM7.29769 15.0002C7.29769 19.2542 10.746 22.7025 15 22.7025C19.254 22.7025 22.7023 19.2542 22.7023 15.0002C22.7023 10.7462 19.254 7.29785 15 7.29785C10.746 7.29785 7.29769 10.7462 7.29769 15.0002ZM10.0008 14.9999C10.0008 12.2386 12.2387 9.99951 15 9.99951C17.7613 9.99951 20.0004 12.2386 20.0004 14.9999C20.0004 17.7612 17.7613 20.0003 15 20.0003C12.2387 20.0003 10.0008 17.7612 10.0008 14.9999Z" fill="#6CE9AD"/>
</svg>
