<svg width="15" height="15" viewBox="0 0 15 15" fill="none" xmlns="http://www.w3.org/2000/svg">
<path fill-rule="evenodd" clip-rule="evenodd" d="M9.61367 0.321045C12.6993 1.24851 14.9644 4.10227 14.9644 7.50893C14.9644 11.6469 11.6113 15 7.47335 15C6.6529 15 5.86811 14.8752 5.13684 14.6255L10.773 7.0452C10.8443 6.95602 10.8622 6.81333 10.8087 6.70632C10.7552 6.5993 10.6481 6.52796 10.5233 6.52796H7.5982L9.6315 0.321045H9.61367Z" fill="#6CE9AD"/>
<path fill-rule="evenodd" clip-rule="evenodd" d="M7.47326 0.017836C7.99051 0.017836 8.48991 0.0713438 8.97148 0.160524L3.79906 8.04401C3.72771 8.13319 3.72771 8.27588 3.78122 8.36506C3.83473 8.47208 3.94175 8.52559 4.0666 8.52559H6.84901L4.5125 14.3579C1.85494 13.1986 0 10.5589 0 7.4911C0 3.35316 3.35316 0 7.4911 0L7.47326 0.017836Z" fill="#6CE9AD"/>
</svg>
