<svg width="174" height="29" viewBox="0 0 174 29" fill="none" xmlns="http://www.w3.org/2000/svg">
<path fill-rule="evenodd" clip-rule="evenodd" d="M18.5862 0.620605C24.5518 2.41371 28.9311 7.93097 28.9311 14.5172C28.9311 22.5172 22.4483 29 14.4483 29C12.8621 29 11.3448 28.7586 9.93103 28.2759L20.8276 13.6206C20.9655 13.4482 21 13.1724 20.8966 12.9655C20.7931 12.7586 20.5862 12.6206 20.3449 12.6206H14.6897L18.6207 0.620605H18.5862Z" fill="#6CE9AD"/>
<path fill-rule="evenodd" clip-rule="evenodd" d="M14.4483 0.0344829C15.4483 0.0344829 16.4138 0.137931 17.3449 0.310346L7.34485 15.5518C7.20692 15.7242 7.20692 16 7.31036 16.1725C7.41381 16.3794 7.62071 16.4828 7.86209 16.4828H13.2414L8.72416 27.7587C3.58622 25.5173 0 20.4138 0 14.4828C0 6.48278 6.48278 0 14.4828 0L14.4483 0.0344829Z" fill="#6CE9AD"/>
<path d="M60.9311 28.5866C58.2069 28.5866 55.7931 28.0004 53.7242 26.7935C51.6207 25.5866 50 23.9659 48.7931 21.828C47.5862 19.7245 47 17.3107 47 14.5866C47 11.828 47.5517 9.41415 48.6897 7.3107C49.8276 5.20725 51.3793 3.55207 53.3448 2.34517C55.3104 1.13827 57.6207 0.517578 60.1724 0.517578C62.7242 0.517578 64.9311 1.10379 66.8276 2.24172C68.7242 3.41414 70.207 5.00035 71.2414 7.03484C72.2759 9.06932 72.7932 11.4142 72.7932 14.0349C72.7932 14.5866 72.6208 15.0004 72.2759 15.3107C71.9311 15.6211 71.5173 15.7935 70.9656 15.7935H49.5862V12.5866H71.3794L69.207 14.1383C69.2414 12.2073 68.8966 10.4486 68.138 8.89691C67.4138 7.34518 66.3449 6.13828 65 5.27621C63.6552 4.41414 62.0345 3.96586 60.138 3.96586C58.2414 3.96586 56.5517 4.41414 55.1035 5.31069C53.6552 6.20725 52.5517 7.44863 51.7586 9.06932C50.9655 10.6555 50.5862 12.4831 50.5862 14.5176C50.5862 16.5521 51.0345 18.3797 51.931 19.9659C52.8276 21.5521 54.0345 22.7935 55.5862 23.6901C57.138 24.5866 58.8966 25.0349 60.9311 25.0349C62.138 25.0349 63.3449 24.828 64.5863 24.4142C65.8276 24.0004 66.7931 23.4832 67.5173 22.828C67.8966 22.5176 68.3104 22.3797 68.7587 22.3452C69.2414 22.3452 69.6207 22.4487 69.9656 22.7245C70.4139 23.1383 70.6207 23.5521 70.6552 24.0349C70.6552 24.5176 70.4828 24.897 70.069 25.2418C68.9656 26.1728 67.5518 26.9659 65.8276 27.5866C64.1035 28.2073 62.4828 28.5177 60.8966 28.5177L60.9311 28.5866Z" fill="#6CE9AD"/>
<path d="M105.069 28.586C102.414 28.586 100.069 27.9653 98 26.7584C95.931 25.517 94.3103 23.8619 93.1034 21.7584C91.8965 19.655 91.3103 17.2756 91.3103 14.6205C91.3103 11.9308 91.8965 9.55148 93.0344 7.41354C94.1724 5.31009 95.7241 3.62043 97.7241 2.41353C99.6896 1.17215 102 0.585938 104.552 0.585938C106.586 0.585938 108.483 0.999732 110.207 1.79284C111.931 2.58594 113.448 3.79284 114.759 5.41354C115.138 5.82733 115.276 6.24113 115.172 6.6894C115.069 7.13768 114.793 7.55147 114.31 7.86182C113.931 8.13768 113.517 8.20665 113.069 8.13768C112.621 8.06872 112.207 7.82734 111.897 7.41354C109.966 5.20664 107.517 4.10319 104.552 4.10319C102.69 4.10319 101.034 4.55147 99.5862 5.44802C98.1724 6.34457 97.0689 7.58596 96.2758 9.17217C95.4827 10.7584 95.1034 12.5515 95.1034 14.6205C95.1034 16.6205 95.5172 18.4136 96.3448 19.9998C97.1724 21.586 98.3448 22.8274 99.8621 23.7239C101.379 24.6205 103.103 25.0688 105.034 25.0688C106.345 25.0688 107.552 24.8963 108.621 24.5515C109.724 24.2067 110.69 23.655 111.517 22.9308C111.931 22.586 112.345 22.4136 112.759 22.3791C113.207 22.3446 113.586 22.4825 113.966 22.7929C114.379 23.1722 114.586 23.586 114.655 24.0343C114.69 24.517 114.552 24.8963 114.172 25.2412C111.724 27.4826 108.655 28.6205 105 28.6205L105.069 28.586Z" fill="white"/>
<path d="M134.931 28.586C132.345 28.586 130.035 27.9653 128 26.7584C125.966 25.517 124.345 23.8619 123.138 21.7584C121.931 19.655 121.345 17.2756 121.345 14.6205C121.345 11.9308 121.966 9.55148 123.172 7.41354C124.414 5.31009 126.069 3.62043 128.172 2.41353C130.276 1.17215 132.655 0.585938 135.31 0.585938C137.966 0.585938 140.345 1.20663 142.414 2.41353C144.517 3.65491 146.173 5.31009 147.379 7.41354C148.621 9.517 149.241 11.9308 149.276 14.6205L147.724 15.8274C147.724 18.2412 147.173 20.4136 146.035 22.3446C144.897 24.2757 143.379 25.7929 141.448 26.9308C139.517 28.0688 137.345 28.6205 134.897 28.6205L134.931 28.586ZM135.345 25.0688C137.276 25.0688 139.035 24.6205 140.552 23.7239C142.069 22.8274 143.276 21.5515 144.173 19.9653C145.069 18.3791 145.517 16.586 145.517 14.6205C145.517 12.6205 145.069 10.8273 144.173 9.24113C143.276 7.65492 142.069 6.41354 140.552 5.4825C139.035 4.55147 137.276 4.10319 135.345 4.10319C133.448 4.10319 131.69 4.55147 130.172 5.4825C128.621 6.41354 127.414 7.65492 126.483 9.24113C125.586 10.8273 125.138 12.6205 125.138 14.6205C125.138 16.586 125.586 18.3791 126.483 19.9653C127.379 21.5515 128.621 22.7929 130.172 23.7239C131.724 24.6205 133.448 25.0688 135.345 25.0688ZM147.379 28.3446C146.793 28.3446 146.345 28.1722 145.966 27.8274C145.586 27.4826 145.414 26.9998 145.414 26.4481V17.8274L146.379 13.8618L149.345 14.6205V26.4481C149.345 27.0343 149.173 27.4826 148.793 27.8274C148.414 28.1722 147.966 28.3446 147.379 28.3446Z" fill="white"/>
<path d="M158.483 11.3797C158.586 9.3107 159.138 7.44863 160.104 5.79345C161.104 4.13828 162.38 2.86241 163.966 1.93138C165.552 1.00034 167.345 0.517578 169.276 0.517578C170.828 0.517578 172 0.724475 172.862 1.17275C173.69 1.62103 174.035 2.24172 173.828 3.06931C173.69 3.58655 173.483 3.8969 173.138 4.06931C172.828 4.24173 172.449 4.31069 171.966 4.27621C171.518 4.24173 171 4.20724 170.414 4.17276C168.552 4.00035 166.862 4.20724 165.414 4.75897C163.966 5.31069 162.793 6.17276 161.931 7.3107C161.069 8.44863 160.655 9.79346 160.655 11.3797H158.449H158.483ZM158.793 28.3452C158.173 28.3452 157.724 28.1728 157.38 27.828C157.035 27.4832 156.862 27.0349 156.862 26.4142V2.72448C156.862 2.10379 157.035 1.65551 157.38 1.31068C157.724 0.965855 158.173 0.793441 158.793 0.793441C159.414 0.793441 159.862 0.965855 160.207 1.31068C160.552 1.65551 160.724 2.10379 160.724 2.72448V26.4142C160.724 27.0349 160.552 27.4832 160.207 27.828C159.862 28.1728 159.414 28.3452 158.793 28.3452Z" fill="white"/>
<path d="M84.8103 15.5C84.8103 16.8807 83.691 18 82.3103 18C80.9296 18 79.8103 16.8807 79.8103 15.5C79.8103 14.1193 80.9296 13 82.3103 13C83.691 13 84.8103 14.1193 84.8103 15.5Z" fill="white"/>
</svg>
