<svg width="29" height="29" viewBox="0 0 29 29" fill="none" xmlns="http://www.w3.org/2000/svg">
<path fill-rule="evenodd" clip-rule="evenodd" d="M18.5862 0.620728C24.5518 2.41384 28.9311 7.93109 28.9311 14.5173C28.9311 22.5173 22.4483 29.0001 14.4483 29.0001C12.8621 29.0001 11.3448 28.7587 9.93103 28.276L20.8276 13.6208C20.9655 13.4483 21 13.1725 20.8966 12.9656C20.7931 12.7587 20.5862 12.6208 20.3449 12.6208H14.6897L18.6207 0.620728H18.5862Z" fill="#6CE9AD"/>
<path fill-rule="evenodd" clip-rule="evenodd" d="M14.4483 0.0344829C15.4483 0.0344829 16.4138 0.137931 17.3449 0.310346L7.34485 15.5518C7.20692 15.7242 7.20692 16 7.31036 16.1725C7.41381 16.3794 7.62071 16.4828 7.86209 16.4828H13.2414L8.72416 27.7587C3.58622 25.5173 0 20.4138 0 14.4828C0 6.48278 6.48278 0 14.4828 0L14.4483 0.0344829Z" fill="#6CE9AD"/>
</svg>
