<svg width="440" height="373" viewBox="0 0 440 373" fill="none" xmlns="http://www.w3.org/2000/svg">
<mask id="mask0" mask-type="alpha" maskUnits="userSpaceOnUse" x="0" y="0" width="440" height="373">
<rect width="440" height="373" fill="#C4C4C4"/>
</mask>
<g mask="url(#mask0)">
<g opacity="0.15">
<path fill-rule="evenodd" clip-rule="evenodd" d="M194.287 63.2383C262.745 83.8151 313 147.128 313 222.709C313 314.513 238.607 388.906 146.802 388.906C128.6 388.906 111.189 386.136 94.9646 380.597L220.009 212.42C221.591 210.442 221.987 207.276 220.8 204.902C219.613 202.528 217.239 200.945 214.469 200.945H149.572L194.683 63.2383H194.287Z" fill="#6CE9AD"/>
<path fill-rule="evenodd" clip-rule="evenodd" d="M146.802 56.5163C158.277 56.5163 169.357 57.7034 180.041 59.682L65.2859 234.585C63.7031 236.564 63.7031 239.729 64.8902 241.708C66.0773 244.082 68.4516 245.269 71.2216 245.269H132.952L81.1143 374.666C22.1537 348.945 -19 290.38 -19 222.318C-19 130.514 55.3932 56.1206 147.198 56.1206L146.802 56.5163Z" fill="#6CE9AD"/>
</g>
</g>
</svg>
