<svg width="174" height="29" viewBox="0 0 174 29" fill="none" xmlns="http://www.w3.org/2000/svg">
<path fill-rule="evenodd" clip-rule="evenodd" d="M18.5862 0.620728C24.5518 2.41384 28.9311 7.93109 28.9311 14.5173C28.9311 22.5173 22.4483 29.0001 14.4483 29.0001C12.8621 29.0001 11.3448 28.7587 9.93103 28.276L20.8276 13.6208C20.9655 13.4483 21 13.1725 20.8966 12.9656C20.7931 12.7587 20.5862 12.6208 20.3449 12.6208H14.6897L18.6207 0.620728H18.5862Z" fill="#6CE9AD"/>
<path fill-rule="evenodd" clip-rule="evenodd" d="M14.4483 0.0344829C15.4483 0.0344829 16.4138 0.137931 17.3449 0.310346L7.34485 15.5518C7.20692 15.7242 7.20692 16 7.31036 16.1725C7.41381 16.3794 7.62071 16.4828 7.86209 16.4828H13.2414L8.72416 27.7587C3.58622 25.5173 0 20.4138 0 14.4828C0 6.48278 6.48278 0 14.4828 0L14.4483 0.0344829Z" fill="#6CE9AD"/>
<path d="M60.9311 28.5865C58.2069 28.5865 55.7931 28.0003 53.7242 26.7934C51.6207 25.5865 50 23.9658 48.7931 21.8279C47.5862 19.7244 47 17.3106 47 14.5865C47 11.8278 47.5517 9.41403 48.6897 7.31058C49.8276 5.20712 51.3793 3.55195 53.3448 2.34505C55.3104 1.13815 57.6207 0.517456 60.1724 0.517456C62.7242 0.517456 64.9311 1.10366 66.8276 2.2416C68.7242 3.41402 70.207 5.00023 71.2414 7.03471C72.2759 9.0692 72.7932 11.414 72.7932 14.0347C72.7932 14.5865 72.6208 15.0003 72.2759 15.3106C71.9311 15.6209 71.5173 15.7934 70.9656 15.7934H49.5862V12.5865H71.3794L69.207 14.1382C69.2414 12.2071 68.8966 10.4485 68.138 8.89679C67.4138 7.34506 66.3449 6.13816 65 5.27609C63.6552 4.41402 62.0345 3.96574 60.138 3.96574C58.2414 3.96574 56.5517 4.41402 55.1035 5.31057C53.6552 6.20713 52.5517 7.44851 51.7586 9.0692C50.9655 10.6554 50.5862 12.483 50.5862 14.5175C50.5862 16.552 51.0345 18.3796 51.931 19.9658C52.8276 21.552 54.0345 22.7934 55.5862 23.6899C57.138 24.5865 58.8966 25.0348 60.9311 25.0348C62.138 25.0348 63.3449 24.8279 64.5863 24.4141C65.8276 24.0003 66.7931 23.483 67.5173 22.8279C67.8966 22.5175 68.3104 22.3796 68.7587 22.3451C69.2414 22.3451 69.6207 22.4485 69.9656 22.7244C70.4139 23.1382 70.6207 23.552 70.6552 24.0348C70.6552 24.5175 70.4828 24.8968 70.069 25.2417C68.9656 26.1727 67.5518 26.9658 65.8276 27.5865C64.1035 28.2072 62.4828 28.5175 60.8966 28.5175L60.9311 28.5865Z" fill="#6CE9AD"/>
<path d="M105.069 28.5863C102.414 28.5863 100.069 27.9656 98 26.7587C95.931 25.5173 94.3103 23.8621 93.1034 21.7587C91.8965 19.6552 91.3103 17.2759 91.3103 14.6207C91.3103 11.931 91.8965 9.55172 93.0344 7.41379C94.1724 5.31033 95.7241 3.62067 97.7241 2.41377C99.6896 1.17239 102 0.586182 104.552 0.586182C106.586 0.586182 108.483 0.999976 110.207 1.79308C111.931 2.58619 113.448 3.79309 114.759 5.41378C115.138 5.82757 115.276 6.24137 115.172 6.68965C115.069 7.13792 114.793 7.55172 114.31 7.86206C113.931 8.13793 113.517 8.20689 113.069 8.13793C112.621 8.06896 112.207 7.82758 111.897 7.41379C109.966 5.20688 107.517 4.10343 104.552 4.10343C102.69 4.10343 101.034 4.55171 99.5862 5.44826C98.1724 6.34482 97.0689 7.5862 96.2758 9.17241C95.4827 10.7586 95.1034 12.5517 95.1034 14.6207C95.1034 16.6207 95.5172 18.4138 96.3448 20C97.1724 21.5862 98.3448 22.8276 99.8621 23.7242C101.379 24.6207 103.103 25.069 105.034 25.069C106.345 25.069 107.552 24.8966 108.621 24.5518C109.724 24.2069 110.69 23.6552 111.517 22.9311C111.931 22.5862 112.345 22.4138 112.759 22.3793C113.207 22.3449 113.586 22.4828 113.966 22.7931C114.379 23.1724 114.586 23.5862 114.655 24.0345C114.69 24.5173 114.552 24.8966 114.172 25.2414C111.724 27.4828 108.655 28.6207 105 28.6207L105.069 28.5863Z" fill="#001E44"/>
<path d="M134.931 28.5863C132.345 28.5863 130.035 27.9656 128 26.7587C125.966 25.5173 124.345 23.8621 123.138 21.7587C121.931 19.6552 121.345 17.2759 121.345 14.6207C121.345 11.931 121.966 9.55172 123.172 7.41379C124.414 5.31033 126.069 3.62067 128.172 2.41377C130.276 1.17239 132.655 0.586182 135.31 0.586182C137.966 0.586182 140.345 1.20687 142.414 2.41377C144.517 3.65516 146.173 5.31033 147.379 7.41379C148.621 9.51724 149.241 11.931 149.276 14.6207L147.724 15.8276C147.724 18.2414 147.173 20.4138 146.035 22.3449C144.897 24.2759 143.379 25.7931 141.448 26.9311C139.517 28.069 137.345 28.6207 134.897 28.6207L134.931 28.5863ZM135.345 25.069C137.276 25.069 139.035 24.6207 140.552 23.7242C142.069 22.8276 143.276 21.5518 144.173 19.9655C145.069 18.3793 145.517 16.5862 145.517 14.6207C145.517 12.6207 145.069 10.8276 144.173 9.24138C143.276 7.65517 142.069 6.41378 140.552 5.48275C139.035 4.55171 137.276 4.10343 135.345 4.10343C133.448 4.10343 131.69 4.55171 130.172 5.48275C128.621 6.41378 127.414 7.65517 126.483 9.24138C125.586 10.8276 125.138 12.6207 125.138 14.6207C125.138 16.5862 125.586 18.3793 126.483 19.9655C127.379 21.5518 128.621 22.7931 130.172 23.7242C131.724 24.6207 133.448 25.069 135.345 25.069ZM147.379 28.3449C146.793 28.3449 146.345 28.1725 145.966 27.8276C145.586 27.4828 145.414 27 145.414 26.4483V17.8276L146.379 13.8621L149.345 14.6207V26.4483C149.345 27.0345 149.173 27.4828 148.793 27.8276C148.414 28.1725 147.966 28.3449 147.379 28.3449Z" fill="#001E44"/>
<path d="M158.483 11.3796C158.586 9.31058 159.138 7.44851 160.104 5.79333C161.104 4.13815 162.38 2.86229 163.966 1.93125C165.552 1.00022 167.345 0.517456 169.276 0.517456C170.828 0.517456 172 0.724353 172.862 1.17263C173.69 1.62091 174.035 2.2416 173.828 3.06919C173.69 3.58643 173.483 3.89678 173.138 4.06919C172.828 4.2416 172.449 4.31057 171.966 4.27609C171.518 4.2416 171 4.20712 170.414 4.17264C168.552 4.00022 166.862 4.20712 165.414 4.75885C163.966 5.31057 162.793 6.17264 161.931 7.31058C161.069 8.44851 160.655 9.79334 160.655 11.3796H158.449H158.483ZM158.793 28.3451C158.173 28.3451 157.724 28.1727 157.38 27.8279C157.035 27.483 156.862 27.0348 156.862 26.4141V2.72436C156.862 2.10367 157.035 1.65539 157.38 1.31056C157.724 0.965733 158.173 0.793319 158.793 0.793319C159.414 0.793319 159.862 0.965733 160.207 1.31056C160.552 1.65539 160.724 2.10367 160.724 2.72436V26.4141C160.724 27.0348 160.552 27.483 160.207 27.8279C159.862 28.1727 159.414 28.3451 158.793 28.3451Z" fill="#001E44"/>
<path d="M84.8103 15.5C84.8103 16.8807 83.691 18 82.3103 18C80.9296 18 79.8103 16.8807 79.8103 15.5C79.8103 14.1193 80.9296 13 82.3103 13C83.691 13 84.8103 14.1193 84.8103 15.5Z" fill="#001E44"/>
</svg>
