<svg width="24" height="24" viewBox="0 0 24 24" fill="none" xmlns="http://www.w3.org/2000/svg">
<path d="M11.9998 8.406C11.9998 6.95573 10.9623 6 9.45921 6C8.05785 6 6.99981 7.04665 6.99981 8.406C6.99981 9.81853 8.10912 11 9.45921 11C10.904 11 11.9998 9.91018 11.9998 8.406ZM13.9998 8.406C13.9998 11.0172 12.0062 13 9.45921 13C6.97539 13 4.99981 10.8959 4.99981 8.406C4.99981 5.9372 6.95809 4 9.45921 4C12.0318 4 13.9998 5.81281 13.9998 8.406ZM3.93613 19.3511L2.06348 18.6489C2.11628 18.5081 2.21072 18.273 2.34146 17.9742C2.55897 17.477 2.80164 16.9792 3.06573 16.5097C3.94635 14.9442 4.83153 14 5.99981 14H12.9998C14.1681 14 15.0533 14.9442 15.9339 16.5097C16.198 16.9792 16.4406 17.477 16.6581 17.9742C16.7889 18.273 16.8833 18.5081 16.9361 18.6489L15.0635 19.3511C15.0225 19.2419 14.9412 19.0395 14.8258 18.7758C14.6332 18.3355 14.4188 17.8958 14.1907 17.4903C13.9104 16.9919 13.6307 16.5851 13.3718 16.3089C13.1616 16.0847 13.0187 16 12.9998 16H5.99981C5.98094 16 5.83801 16.0847 5.62778 16.3089C5.36888 16.5851 5.08922 16.9919 4.80888 17.4903C4.58079 17.8958 4.36642 18.3355 4.17378 18.7758C4.05842 19.0395 3.97708 19.2419 3.93613 19.3511ZM16.9998 16V14H18.9998C20.1681 14 21.0533 14.9442 21.9339 16.5097C22.198 16.9792 22.4406 17.477 22.6581 17.9742C22.7889 18.273 22.8833 18.5081 22.9361 18.6489L21.0635 19.3511C21.0225 19.2419 20.9412 19.0395 20.8258 18.7758C20.6332 18.3355 20.4188 17.8958 20.1907 17.4903C19.9104 16.9919 19.6307 16.5851 19.3718 16.3089C19.1616 16.0847 19.0187 16 18.9998 16H16.9998ZM14.9998 6V4H15.9998C18.152 4 19.9998 6.05317 19.9998 8.5C19.9998 10.9468 18.152 13 15.9998 13H14.9998V11H15.9998C16.9977 11 17.9998 9.8865 17.9998 8.5C17.9998 7.1135 16.9977 6 15.9998 6H14.9998Z" fill="#6CE9AD"/>
</svg>
