<svg width="37" height="30" viewBox="0 0 37 30" fill="none" xmlns="http://www.w3.org/2000/svg">
<path d="M24.6726 0.00665927V0H26.404L27.0366 0.126526C27.4584 0.208668 27.8413 0.316315 28.1854 0.449501C28.5294 0.582686 28.8624 0.73808 29.1842 0.915649C29.5061 1.09322 29.798 1.27415 30.06 1.45838C30.3197 1.64041 30.5528 1.83353 30.7592 2.03774C30.9634 2.24417 31.2819 2.29745 31.7148 2.19756C32.1476 2.09767 32.6138 1.95892 33.1132 1.78135C33.6127 1.60378 34.1066 1.40401 34.5949 1.18202C35.0833 0.960033 35.3807 0.81909 35.4873 0.759156C35.5916 0.697026 35.6471 0.663729 35.6538 0.659267L35.6604 0.649279L35.6937 0.63263L35.727 0.615982L35.7603 0.599334L35.7936 0.582686L35.8002 0.572697L35.8102 0.566038L35.8202 0.559378L35.8269 0.54939L35.8602 0.539401L35.8935 0.532741L35.8868 0.582686L35.8768 0.63263L35.8602 0.682575L35.8435 0.732519L35.8269 0.765816L35.8102 0.799112L35.7936 0.849057C35.7825 0.882353 35.7714 0.926737 35.7603 0.982242C35.7492 1.03775 35.6437 1.2597 35.444 1.64817C35.2442 2.03664 34.9944 2.43063 34.6948 2.83019C34.3951 3.22974 34.1265 3.53161 33.889 3.73585C33.6493 3.94229 33.4906 4.08656 33.4129 4.1687C33.3352 4.25304 33.2409 4.33072 33.1299 4.40178L32.9634 4.51165L32.9301 4.5283L32.8968 4.54495L32.8902 4.55494L32.8801 4.5616L32.8701 4.56826L32.8635 4.57825L32.8302 4.59489L32.7969 4.61154L32.7903 4.62153L32.7802 4.62819L32.7703 4.63485L32.7636 4.64484L32.757 4.65483L32.7469 4.66149L32.737 4.66815L32.7303 4.67814H32.8968L33.8291 4.47836C34.4506 4.34517 35.0444 4.18425 35.6104 3.99556L36.5094 3.69589L36.6093 3.6626L36.6593 3.64595L36.6926 3.6293L36.7259 3.61265L36.7592 3.596L36.7925 3.57936L36.859 3.56937L36.9256 3.56271V3.6293L36.909 3.63596L36.8923 3.64595L36.8857 3.65594L36.8757 3.6626L36.8657 3.66926L36.859 3.67925L36.8524 3.68923L36.8424 3.69589L36.8324 3.70255L36.8257 3.71254L36.8191 3.72253L36.8091 3.72919L36.7925 3.76249L36.7758 3.79578L36.7658 3.80244C36.7614 3.8091 36.6204 3.99776 36.343 4.36848C36.0655 4.7414 35.9157 4.93006 35.8935 4.93452C35.8713 4.94118 35.8402 4.97447 35.8002 5.03441C35.7625 5.09654 35.5272 5.34406 35.0943 5.77691C34.6615 6.20977 34.2376 6.59487 33.8225 6.9323C33.4051 7.27192 33.1943 7.68922 33.1898 8.18424C33.1832 8.67703 33.1576 9.23421 33.1132 9.85572C33.0688 10.4773 32.9856 11.1487 32.8635 11.8701C32.7414 12.5916 32.5527 13.4073 32.2974 14.3174C32.0422 15.2275 31.7314 16.1154 31.3652 16.9811C30.9989 17.8468 30.616 18.6237 30.2164 19.3119C29.8169 20 29.4506 20.5827 29.1176 21.0599C28.7847 21.5372 28.4462 21.9867 28.1021 22.4084C27.7581 22.8302 27.323 23.3052 26.7969 23.8335C26.2686 24.3596 25.9801 24.6482 25.9312 24.6992C25.8802 24.7481 25.6627 24.9301 25.2786 25.2453C24.8968 25.5627 24.4861 25.8801 24.0466 26.1976C23.6093 26.5128 23.2075 26.7758 22.8413 26.9867C22.475 27.1975 22.0333 27.4384 21.5161 27.7092C21.0011 27.9822 20.444 28.2353 19.8446 28.4684C19.2453 28.7014 18.6127 28.9179 17.9467 29.1176C17.2808 29.3174 16.6371 29.4728 16.0155 29.5838C15.394 29.6948 14.6892 29.7891 13.9012 29.8668L12.7192 29.9834V30H10.5549V29.9834L10.2719 29.9667C10.0833 29.9556 9.92787 29.9445 9.80577 29.9334C9.68371 29.9223 9.22309 29.8613 8.42397 29.7503C7.62486 29.6393 6.99779 29.5283 6.54273 29.4173C6.0877 29.3063 5.41066 29.0954 4.51165 28.7847C3.61265 28.4739 2.84351 28.1598 2.20422 27.8424C1.56716 27.5272 1.1676 27.3274 1.00555 27.2431C0.845727 27.1609 0.665927 27.0588 0.466149 26.9367L0.166482 26.7536L0.159856 26.7436L0.149834 26.737L0.139845 26.7303L0.133185 26.7203L0.099889 26.7037L0.0665927 26.687L0.0599667 26.677L0.0499445 26.6704L0.0399556 26.6637L0.0332963 26.6537L0.0266704 26.6437L0.0166482 26.6371H0V26.5705L0.0332963 26.5771L0.0665927 26.5871L0.216426 26.6038C0.316315 26.6149 0.588246 26.6315 1.03219 26.6537C1.47616 26.6759 1.94784 26.6759 2.44728 26.6537C2.94673 26.6315 3.45729 26.5816 3.97891 26.5039C4.50057 26.4262 5.11655 26.293 5.82686 26.1043C6.5372 25.9156 7.18981 25.6915 7.78472 25.4317C8.37739 25.1698 8.79912 24.9745 9.04998 24.8457C9.29857 24.7192 9.67815 24.4839 10.1887 24.1398L10.9545 23.6238L10.9612 23.6138L10.9711 23.6071L10.9812 23.6004L10.9878 23.5905L10.9945 23.5805L11.0044 23.5738L11.0145 23.5671L11.0211 23.5572L11.0544 23.5472L11.0877 23.5405L11.0943 23.5072L11.1043 23.4739L11.1144 23.4673L11.121 23.4573L10.8546 23.4406C10.677 23.4295 10.505 23.4184 10.3385 23.4073C10.172 23.3962 9.91122 23.3463 9.55605 23.2575C9.20091 23.1687 8.818 23.0355 8.40732 22.8579C7.99668 22.6804 7.59713 22.4695 7.20866 22.2253C6.82022 21.9811 6.5394 21.778 6.36626 21.616C6.19535 21.4561 5.97336 21.2297 5.70033 20.9367C5.42953 20.6415 5.19423 20.3385 4.99445 20.0277C4.79467 19.717 4.60378 19.3585 4.42179 18.9523L4.14539 18.3463L4.12875 18.2963L4.1121 18.2464L4.10211 18.2131L4.09545 18.1798L4.14539 18.1865L4.19534 18.1964L4.5616 18.2464C4.80579 18.2797 5.1887 18.2908 5.71032 18.2797C6.23198 18.2686 6.59267 18.2464 6.79245 18.2131C6.99223 18.1798 7.11433 18.1576 7.15871 18.1465L7.22531 18.1299L7.30855 18.1132L7.39179 18.0966L7.39845 18.0866L7.40843 18.0799L7.41846 18.0733L7.42508 18.0633L7.35849 18.0466L7.2919 18.03L7.22531 18.0133L7.15871 17.9967L7.09212 17.98C7.04774 17.9689 6.97006 17.9467 6.85905 17.9134C6.74807 17.8801 6.4484 17.758 5.96004 17.5472C5.47172 17.3363 5.08325 17.131 4.79467 16.9312C4.50538 16.7308 4.22954 16.5117 3.96892 16.2752C3.70921 16.0355 3.424 15.727 3.11321 15.3496C2.80245 14.9723 2.52499 14.5339 2.2808 14.0344C2.03664 13.535 1.85351 13.0577 1.73141 12.6027C1.6098 12.1503 1.52957 11.6878 1.49171 11.2209L1.43174 10.5216L1.46504 10.5283L1.49834 10.5383L1.53163 10.5549L1.56493 10.5716L1.59822 10.5882L1.63152 10.6049L2.14761 10.838C2.4917 10.9934 2.91899 11.1265 3.42952 11.2375C3.94009 11.3485 4.24528 11.4096 4.34517 11.4206L4.49501 11.4373H4.79467L4.78805 11.4273L4.77802 11.4206L4.76804 11.414L4.76138 11.404L4.75475 11.394L4.74473 11.3873L4.73474 11.3807L4.72808 11.3707L4.69478 11.3541L4.66149 11.3374L4.65486 11.3274L4.64484 11.3208L4.63485 11.3141L4.62819 11.3041L4.59489 11.2875L4.5616 11.2708L4.55497 11.2608C4.54831 11.2564 4.45285 11.1853 4.26859 11.0477C4.08656 10.9079 3.89567 10.727 3.69589 10.505C3.49612 10.283 3.29634 10.0499 3.09656 9.80577C2.89641 9.56105 2.71815 9.29922 2.56382 9.02331C2.40846 8.74585 2.24417 8.39287 2.07103 7.96448C1.90012 7.53829 1.77027 7.10877 1.68147 6.67592C1.5927 6.24306 1.54275 5.81577 1.53163 5.39401C1.52054 4.97224 1.53163 4.61154 1.56493 4.31188C1.59822 4.01221 1.66482 3.67368 1.76471 3.29634C1.86459 2.91899 2.0089 2.51943 2.19756 2.09767L2.48058 1.46504L2.49723 1.41509L2.51387 1.36515L2.5239 1.35849L2.53052 1.3485L2.53718 1.33851L2.54717 1.33185L2.55719 1.33851L2.56382 1.3485L2.57048 1.35849L2.58047 1.36515L2.59049 1.37181L2.59711 1.3818L2.60377 1.39179L2.61376 1.39845L2.63041 1.43174L2.64706 1.46504L2.65708 1.4717L2.66371 1.48169L3.11321 1.98113C3.41287 2.3141 3.76805 2.68592 4.17869 3.09656C4.58937 3.5072 4.81688 3.7203 4.86127 3.73585C4.90568 3.7536 4.96115 3.80464 5.02775 3.88901C5.09434 3.97115 5.31633 4.1676 5.69367 4.47836C6.07105 4.78911 6.56494 5.14984 7.17536 5.56049C7.78582 5.97113 8.46283 6.37625 9.20644 6.7758C9.95008 7.17536 10.7492 7.53606 11.6038 7.85794C12.4584 8.17981 13.0577 8.39068 13.4018 8.49057C13.7459 8.59046 14.3341 8.71808 15.1665 8.87347C15.9989 9.02887 16.626 9.12876 17.0477 9.17314C17.4695 9.21752 17.7581 9.24306 17.9134 9.24972L18.1465 9.25638L18.1399 9.20644L18.1299 9.15649L18.0633 8.74029C18.0189 8.46283 17.9967 8.07436 17.9967 7.57492C17.9967 7.07547 18.0355 6.61488 18.1132 6.19312C18.1909 5.77135 18.3075 5.34406 18.4628 4.91121C18.6182 4.47836 18.7703 4.13094 18.919 3.86903C19.0699 3.60932 19.2675 3.31299 19.5117 2.98002C19.7558 2.64706 20.0722 2.30301 20.4606 1.94784C20.8491 1.59266 21.293 1.27635 21.7925 0.99889C22.2919 0.721432 22.7525 0.510533 23.1743 0.36626C23.596 0.221987 23.9512 0.127625 24.2397 0.0832408C24.5283 0.0388568 24.6726 0.0133185 24.6726 0.00665927Z" fill="#6CE9AD"/>
</svg>
