<svg width="65" height="65" viewBox="0 0 65 65" fill="none" xmlns="http://www.w3.org/2000/svg">
<circle opacity="0.1" cx="32.5" cy="32.5" r="32.5" fill="#6CE6E9"/>
<path fill-rule="evenodd" clip-rule="evenodd" d="M34 34C34 32.8954 34.8954 32 36 32L44 32C45.1046 32 46 32.8954 46 34V38C46 39.1046 45.1046 40 44 40H36C34.8954 40 34 39.1046 34 38V34Z" stroke="white" stroke-width="2" stroke-linecap="round"/>
<path fill-rule="evenodd" clip-rule="evenodd" d="M38 37C38.5523 37 39 36.5523 39 36C39 35.4477 38.5523 35 38 35C37.4477 35 37 35.4477 37 36C37 36.5523 37.4477 37 38 37Z" fill="white"/>
<path d="M44 40V43C44 44.6569 42.6569 46 41 46H23C21.3431 46 20 44.6569 20 43V22.5" stroke="white" stroke-width="2" stroke-linecap="round"/>
<path d="M44 32V28C44 26.3431 42.6569 25 41 25H22.5C21.1193 25 20 23.8807 20 22.5V22.5C20 21.1193 21.1193 20 22.5 20H38C39.6569 20 41 21.3431 41 23V25" stroke="white" stroke-width="2" stroke-linecap="round"/>
</svg>
